<svg width="1264" height="400" viewBox="0 0 1264 400" fill="none" xmlns="http://www.w3.org/2000/svg">
<g clip-path="url(#clip0_1_541)">
<rect width="1264" height="400" rx="12" fill="#141414"/>
<path d="M42.0085 66V45.6364H49.804C51.2756 45.6364 52.4986 45.8684 53.473 46.3324C54.4541 46.7898 55.1866 47.4162 55.6705 48.2116C56.161 49.0071 56.4062 49.9086 56.4062 50.9162C56.4062 51.7448 56.2472 52.4541 55.929 53.044C55.6108 53.6274 55.1832 54.1013 54.6463 54.4659C54.1094 54.8305 53.5095 55.0923 52.8466 55.2514V55.4503C53.5691 55.4901 54.2618 55.7121 54.9247 56.1165C55.5942 56.5142 56.1411 57.0777 56.5653 57.8068C56.9896 58.536 57.2017 59.4176 57.2017 60.4517C57.2017 61.5057 56.9465 62.4536 56.4361 63.2955C55.9257 64.1307 55.1567 64.7902 54.1293 65.2741C53.1018 65.758 51.8092 66 50.2514 66H42.0085ZM45.6974 62.9176H49.6648C51.0038 62.9176 51.9683 62.6624 52.5582 62.152C53.1548 61.6349 53.4531 60.9721 53.4531 60.1634C53.4531 59.5601 53.304 59.0166 53.0057 58.5327C52.7074 58.0421 52.2831 57.6577 51.733 57.3793C51.1828 57.0942 50.5265 56.9517 49.7642 56.9517H45.6974V62.9176ZM45.6974 54.2969H49.3466C49.983 54.2969 50.5563 54.1809 51.0668 53.9489C51.5772 53.7102 51.9782 53.3755 52.2699 52.9446C52.5682 52.5071 52.7173 51.9901 52.7173 51.3935C52.7173 50.6046 52.4389 49.955 51.8821 49.4446C51.3319 48.9342 50.5133 48.679 49.4261 48.679H45.6974V54.2969ZM66.4531 66.2983C64.9219 66.2983 63.5994 65.9801 62.4858 65.3438C61.3788 64.7008 60.527 63.7926 59.9304 62.6193C59.3338 61.4394 59.0355 60.0507 59.0355 58.4531C59.0355 56.8821 59.3338 55.5033 59.9304 54.3168C60.5336 53.1236 61.3755 52.1955 62.456 51.5327C63.5365 50.8632 64.8059 50.5284 66.2642 50.5284C67.2055 50.5284 68.0938 50.6809 68.929 50.9858C69.7708 51.2841 70.5133 51.7481 71.1563 52.3778C71.8059 53.0076 72.3163 53.8097 72.6875 54.7841C73.0587 55.7519 73.2443 56.9053 73.2443 58.2443V59.348H60.7259V56.9219H69.794C69.7874 56.2325 69.6383 55.6193 69.3466 55.0824C69.0549 54.5388 68.6473 54.1113 68.1236 53.7997C67.6065 53.4882 67.0033 53.3324 66.3139 53.3324C65.5781 53.3324 64.9318 53.5114 64.375 53.8693C63.8182 54.2206 63.384 54.6847 63.0725 55.2614C62.7675 55.8314 62.6118 56.4579 62.6051 57.1406V59.2585C62.6051 60.1468 62.7675 60.9091 63.0923 61.5455C63.4172 62.1752 63.8712 62.6591 64.4546 62.9972C65.0379 63.3286 65.7207 63.4943 66.5029 63.4943C67.0265 63.4943 67.5005 63.4214 67.9247 63.2756C68.349 63.1231 68.7169 62.901 69.0284 62.6094C69.34 62.3177 69.5753 61.9564 69.7344 61.5256L73.0952 61.9034C72.8831 62.7917 72.4787 63.5672 71.8821 64.2301C71.2922 64.8864 70.5365 65.3968 69.6151 65.7614C68.6937 66.1193 67.6397 66.2983 66.4531 66.2983ZM87.8005 54.7642L84.5192 55.1222C84.4264 54.7907 84.264 54.4792 84.032 54.1875C83.8066 53.8958 83.5017 53.6605 83.1172 53.4815C82.7327 53.3026 82.2621 53.2131 81.7053 53.2131C80.9562 53.2131 80.3265 53.3755 79.8161 53.7003C79.3123 54.0251 79.0637 54.446 79.0703 54.9631C79.0637 55.4072 79.2261 55.7685 79.5576 56.0469C79.8956 56.3253 80.4524 56.554 81.228 56.733L83.8331 57.2898C85.2782 57.6013 86.3521 58.0952 87.0547 58.7713C87.764 59.4474 88.122 60.3324 88.1286 61.4261C88.122 62.3873 87.8402 63.2358 87.2834 63.9716C86.7332 64.7008 85.9676 65.2708 84.9865 65.6818C84.0055 66.0928 82.8786 66.2983 81.6059 66.2983C79.7365 66.2983 78.2318 65.9072 77.0916 65.125C75.9515 64.3362 75.272 63.2391 75.0533 61.8338L78.5632 61.4957C78.7223 62.1851 79.0604 62.7055 79.5774 63.0568C80.0945 63.4081 80.7673 63.5838 81.5959 63.5838C82.451 63.5838 83.1371 63.4081 83.6541 63.0568C84.1778 62.7055 84.4397 62.2713 84.4397 61.7543C84.4397 61.3168 84.2706 60.9555 83.9326 60.6705C83.6011 60.3854 83.0841 60.1667 82.3814 60.0142L79.7763 59.4673C78.3113 59.1624 77.2275 58.6487 76.5249 57.9261C75.8222 57.197 75.4742 56.2756 75.4809 55.1619C75.4742 54.2206 75.7294 53.4053 76.2465 52.7159C76.7702 52.0199 77.496 51.483 78.424 51.1051C79.3587 50.7206 80.4359 50.5284 81.6556 50.5284C83.4453 50.5284 84.854 50.9096 85.8814 51.6719C86.9155 52.4342 87.5552 53.465 87.8005 54.7642ZM98.163 50.7273V53.5114H89.3832V50.7273H98.163ZM91.5508 47.0682H95.1503V61.4062C95.1503 61.8902 95.2232 62.2614 95.369 62.5199C95.5215 62.7718 95.7203 62.9441 95.9656 63.0369C96.2109 63.1297 96.4826 63.1761 96.7809 63.1761C97.0063 63.1761 97.2118 63.1596 97.3974 63.1264C97.5896 63.0933 97.7355 63.0634 97.8349 63.0369L98.4414 65.8509C98.2492 65.9171 97.9741 65.9901 97.6162 66.0696C97.2648 66.1491 96.834 66.1955 96.3236 66.2088C95.422 66.2353 94.61 66.0994 93.8875 65.8011C93.1649 65.4962 92.5915 65.0256 92.1673 64.3892C91.7497 63.7528 91.5442 62.9574 91.5508 62.0028V47.0682ZM106.999 66V50.7273H110.598V66H106.999ZM108.808 48.5597C108.238 48.5597 107.748 48.3707 107.337 47.9929C106.926 47.6084 106.72 47.1477 106.72 46.6108C106.72 46.0672 106.926 45.6065 107.337 45.2287C107.748 44.8442 108.238 44.652 108.808 44.652C109.385 44.652 109.876 44.8442 110.28 45.2287C110.691 45.6065 110.896 46.0672 110.896 46.6108C110.896 47.1477 110.691 47.6084 110.28 47.9929C109.876 48.3707 109.385 48.5597 108.808 48.5597ZM117.339 57.0511V66H113.739V50.7273H117.18V53.3224H117.359C117.71 52.4673 118.27 51.7879 119.039 51.2841C119.815 50.7803 120.773 50.5284 121.913 50.5284C122.967 50.5284 123.885 50.7538 124.667 51.2045C125.456 51.6553 126.066 52.3082 126.497 53.1634C126.934 54.0185 127.149 55.0559 127.143 56.2756V66H123.543V56.8324C123.543 55.8116 123.278 55.0128 122.748 54.4361C122.224 53.8594 121.498 53.571 120.57 53.571C119.941 53.571 119.381 53.7102 118.89 53.9886C118.406 54.2604 118.025 54.6548 117.747 55.1719C117.475 55.6889 117.339 56.3153 117.339 57.0511ZM136.786 66V45.6364H149.832V48.7287H140.475V54.2571H148.937V57.3494H140.475V66H136.786ZM152.473 66V50.7273H156.073V66H152.473ZM154.283 48.5597C153.713 48.5597 153.223 48.3707 152.812 47.9929C152.401 47.6084 152.195 47.1477 152.195 46.6108C152.195 46.0672 152.401 45.6065 152.812 45.2287C153.223 44.8442 153.713 44.652 154.283 44.652C154.86 44.652 155.35 44.8442 155.755 45.2287C156.166 45.6065 156.371 46.0672 156.371 46.6108C156.371 47.1477 156.166 47.6084 155.755 47.9929C155.35 48.3707 154.86 48.5597 154.283 48.5597ZM162.814 57.0511V66H159.214V50.7273H162.655V53.3224H162.834C163.185 52.4673 163.745 51.7879 164.514 51.2841C165.29 50.7803 166.247 50.5284 167.388 50.5284C168.442 50.5284 169.36 50.7538 170.142 51.2045C170.931 51.6553 171.541 52.3082 171.971 53.1634C172.409 54.0185 172.624 55.0559 172.618 56.2756V66H169.018V56.8324C169.018 55.8116 168.753 55.0128 168.223 54.4361C167.699 53.8594 166.973 53.571 166.045 53.571C165.416 53.571 164.855 53.7102 164.365 53.9886C163.881 54.2604 163.5 54.6548 163.221 55.1719C162.95 55.6889 162.814 56.3153 162.814 57.0511ZM180.112 66.3082C179.144 66.3082 178.272 66.1359 177.497 65.7912C176.728 65.4399 176.118 64.9228 175.667 64.2401C175.223 63.5573 175.001 62.7154 175.001 61.7145C175.001 60.8527 175.16 60.1402 175.478 59.5767C175.796 59.0133 176.231 58.5625 176.781 58.2244C177.331 57.8864 177.951 57.6312 178.64 57.4588C179.336 57.2798 180.055 57.1506 180.798 57.071C181.693 56.9782 182.418 56.8954 182.975 56.8224C183.532 56.7429 183.936 56.6236 184.188 56.4645C184.447 56.2988 184.576 56.0436 184.576 55.6989V55.6392C184.576 54.8902 184.354 54.3101 183.91 53.8991C183.466 53.4882 182.826 53.2827 181.991 53.2827C181.109 53.2827 180.41 53.4749 179.893 53.8594C179.382 54.2438 179.038 54.6979 178.859 55.2216L175.498 54.7443C175.763 53.8163 176.201 53.0407 176.811 52.4176C177.42 51.7879 178.166 51.3172 179.048 51.0057C179.929 50.6875 180.904 50.5284 181.971 50.5284C182.707 50.5284 183.439 50.6146 184.168 50.7869C184.898 50.9593 185.564 51.2443 186.167 51.642C186.77 52.0331 187.254 52.5668 187.619 53.2429C187.99 53.919 188.176 54.7642 188.176 55.7784V66H184.715V63.902H184.596C184.377 64.3262 184.069 64.724 183.671 65.0952C183.28 65.4598 182.786 65.7547 182.19 65.9801C181.6 66.1989 180.907 66.3082 180.112 66.3082ZM181.046 63.6634C181.769 63.6634 182.395 63.5208 182.926 63.2358C183.456 62.9441 183.864 62.5597 184.149 62.0824C184.44 61.6051 184.586 61.0848 184.586 60.5213V58.7216C184.473 58.8144 184.281 58.9006 184.009 58.9801C183.744 59.0597 183.446 59.1293 183.114 59.1889C182.783 59.2486 182.455 59.3016 182.13 59.348C181.805 59.3944 181.524 59.4342 181.285 59.4673C180.748 59.5402 180.267 59.6596 179.843 59.8253C179.419 59.991 179.084 60.223 178.839 60.5213C178.594 60.813 178.471 61.1908 178.471 61.6548C178.471 62.3177 178.713 62.8182 179.197 63.1562C179.681 63.4943 180.297 63.6634 181.046 63.6634ZM194.834 57.0511V66H191.235V50.7273H194.675V53.3224H194.854C195.206 52.4673 195.766 51.7879 196.535 51.2841C197.31 50.7803 198.268 50.5284 199.408 50.5284C200.462 50.5284 201.38 50.7538 202.162 51.2045C202.951 51.6553 203.561 52.3082 203.992 53.1634C204.43 54.0185 204.645 55.0559 204.638 56.2756V66H201.039V56.8324C201.039 55.8116 200.774 55.0128 200.243 54.4361C199.72 53.8594 198.994 53.571 198.066 53.571C197.436 53.571 196.876 53.7102 196.385 53.9886C195.902 54.2604 195.52 54.6548 195.242 55.1719C194.97 55.6889 194.834 56.3153 194.834 57.0511ZM214.399 66.2983C212.875 66.2983 211.566 65.9635 210.472 65.294C209.385 64.6245 208.546 63.6998 207.956 62.5199C207.373 61.3333 207.081 59.9678 207.081 58.4233C207.081 56.8722 207.379 55.5033 207.976 54.3168C208.573 53.1236 209.414 52.1955 210.502 51.5327C211.595 50.8632 212.888 50.5284 214.379 50.5284C215.619 50.5284 216.716 50.7571 217.671 51.2145C218.632 51.6652 219.397 52.3049 219.968 53.1335C220.538 53.9555 220.862 54.9167 220.942 56.017H217.502C217.362 55.2812 217.031 54.6681 216.507 54.1776C215.99 53.6804 215.298 53.4318 214.429 53.4318C213.693 53.4318 213.047 53.6307 212.49 54.0284C211.933 54.4195 211.499 54.983 211.188 55.7188C210.883 56.4545 210.73 57.3362 210.73 58.3636C210.73 59.4044 210.883 60.2992 211.188 61.0483C211.493 61.7907 211.92 62.3641 212.47 62.7685C213.027 63.1662 213.68 63.3651 214.429 63.3651C214.959 63.3651 215.433 63.2656 215.851 63.0668C216.275 62.8613 216.63 62.5663 216.915 62.1818C217.2 61.7973 217.396 61.33 217.502 60.7798H220.942C220.856 61.8603 220.538 62.8182 219.987 63.6534C219.437 64.482 218.688 65.1316 217.74 65.6023C216.792 66.0663 215.679 66.2983 214.399 66.2983ZM230.099 66.2983C228.568 66.2983 227.245 65.9801 226.132 65.3438C225.025 64.7008 224.173 63.7926 223.576 62.6193C222.98 61.4394 222.681 60.0507 222.681 58.4531C222.681 56.8821 222.98 55.5033 223.576 54.3168C224.179 53.1236 225.021 52.1955 226.102 51.5327C227.182 50.8632 228.452 50.5284 229.91 50.5284C230.851 50.5284 231.74 50.6809 232.575 50.9858C233.417 51.2841 234.159 51.7481 234.802 52.3778C235.452 53.0076 235.962 53.8097 236.333 54.7841C236.705 55.7519 236.89 56.9053 236.89 58.2443V59.348H224.372V56.9219H233.44C233.433 56.2325 233.284 55.6193 232.992 55.0824C232.701 54.5388 232.293 54.1113 231.769 53.7997C231.252 53.4882 230.649 53.3324 229.96 53.3324C229.224 53.3324 228.578 53.5114 228.021 53.8693C227.464 54.2206 227.03 54.6847 226.718 55.2614C226.413 55.8314 226.258 56.4579 226.251 57.1406V59.2585C226.251 60.1468 226.413 60.9091 226.738 61.5455C227.063 62.1752 227.517 62.6591 228.1 62.9972C228.684 63.3286 229.366 63.4943 230.149 63.4943C230.672 63.4943 231.146 63.4214 231.571 63.2756C231.995 63.1231 232.363 62.901 232.674 62.6094C232.986 62.3177 233.221 61.9564 233.38 61.5256L236.741 61.9034C236.529 62.7917 236.124 63.5672 235.528 64.2301C234.938 64.8864 234.182 65.3968 233.261 65.7614C232.339 66.1193 231.285 66.2983 230.099 66.2983ZM241.593 66.2188C240.989 66.2188 240.472 66.0066 240.041 65.5824C239.611 65.1581 239.398 64.6411 239.405 64.0312C239.398 63.4347 239.611 62.9242 240.041 62.5C240.472 62.0758 240.989 61.8636 241.593 61.8636C242.176 61.8636 242.683 62.0758 243.114 62.5C243.551 62.9242 243.773 63.4347 243.78 64.0312C243.773 64.4356 243.667 64.8035 243.462 65.1349C243.263 65.4664 242.998 65.7315 242.666 65.9304C242.342 66.1226 241.984 66.2188 241.593 66.2188ZM241.593 55.321C240.989 55.321 240.472 55.1089 240.041 54.6847C239.611 54.2538 239.398 53.7367 239.405 53.1335C239.398 52.5369 239.611 52.0265 240.041 51.6023C240.472 51.1714 240.989 50.956 241.593 50.956C242.176 50.956 242.683 51.1714 243.114 51.6023C243.551 52.0265 243.773 52.5369 243.78 53.1335C243.773 53.5312 243.667 53.8958 243.462 54.2273C243.263 54.5587 242.998 54.8239 242.666 55.0227C242.342 55.2216 241.984 55.321 241.593 55.321ZM252.158 66V62.9375L252.735 62.9077C253.517 62.8613 254.137 62.5795 254.594 62.0625C255.058 61.5455 255.4 60.7135 255.618 59.5668C255.844 58.42 255.993 56.8821 256.066 54.9531L256.404 45.6364H269.748V66H266.138V48.669H259.844L259.526 56.0966C259.433 58.3239 259.188 60.17 258.79 61.6349C258.399 63.0999 257.756 64.1937 256.861 64.9162C255.973 65.6387 254.737 66 253.153 66H252.158ZM276.521 61.1278L282.636 50.7273H286.335V66H282.855V55.5895L276.759 66H273.051V50.7273H276.521V61.1278ZM288.119 70.4347V63.0369H289.332C289.657 62.785 289.929 62.4437 290.147 62.0128C290.366 61.5753 290.545 61.0616 290.684 60.4716C290.83 59.875 290.949 59.2088 291.042 58.473C291.135 57.7306 291.218 56.9318 291.291 56.0767L291.728 50.7273H302.765V63.0369H305.132V70.4347H301.652V66H291.659V70.4347H288.119ZM293.031 63.0369H299.325V53.6307H294.85L294.612 56.0767C294.479 57.6941 294.304 59.0795 294.085 60.233C293.866 61.3864 293.515 62.321 293.031 63.0369ZM314.02 66.2983C312.489 66.2983 311.166 65.9801 310.053 65.3438C308.946 64.7008 308.094 63.7926 307.497 62.6193C306.901 61.4394 306.603 60.0507 306.603 58.4531C306.603 56.8821 306.901 55.5033 307.497 54.3168C308.101 53.1236 308.943 52.1955 310.023 51.5327C311.103 50.8632 312.373 50.5284 313.831 50.5284C314.773 50.5284 315.661 50.6809 316.496 50.9858C317.338 51.2841 318.08 51.7481 318.723 52.3778C319.373 53.0076 319.883 53.8097 320.255 54.7841C320.626 55.7519 320.811 56.9053 320.811 58.2443V59.348H308.293V56.9219H317.361C317.354 56.2325 317.205 55.6193 316.914 55.0824C316.622 54.5388 316.214 54.1113 315.691 53.7997C315.174 53.4882 314.57 53.3324 313.881 53.3324C313.145 53.3324 312.499 53.5114 311.942 53.8693C311.385 54.2206 310.951 54.6847 310.639 55.2614C310.335 55.8314 310.179 56.4579 310.172 57.1406V59.2585C310.172 60.1468 310.335 60.9091 310.659 61.5455C310.984 62.1752 311.438 62.6591 312.022 62.9972C312.605 63.3286 313.288 63.4943 314.07 63.4943C314.594 63.4943 315.068 63.4214 315.492 63.2756C315.916 63.1231 316.284 62.901 316.595 62.6094C316.907 62.3177 317.142 61.9564 317.301 61.5256L320.662 61.9034C320.45 62.7917 320.046 63.5672 319.449 64.2301C318.859 64.8864 318.103 65.3968 317.182 65.7614C316.261 66.1193 315.207 66.2983 314.02 66.2983ZM323.296 71.7273V50.7273H326.836V53.2528H327.045C327.231 52.8816 327.492 52.4872 327.831 52.0696C328.169 51.6454 328.626 51.2841 329.203 50.9858C329.779 50.6809 330.515 50.5284 331.41 50.5284C332.59 50.5284 333.654 50.83 334.602 51.4332C335.556 52.0298 336.312 52.9148 336.869 54.0881C337.432 55.2547 337.714 56.6866 337.714 58.3835C337.714 60.0606 337.439 61.4858 336.889 62.6591C336.339 63.8324 335.59 64.7273 334.642 65.3438C333.694 65.9602 332.62 66.2685 331.42 66.2685C330.545 66.2685 329.819 66.1226 329.242 65.831C328.666 65.5393 328.202 65.188 327.85 64.777C327.506 64.3594 327.237 63.965 327.045 63.5938H326.896V71.7273H323.296ZM326.826 58.3636C326.826 59.3513 326.965 60.2164 327.244 60.9588C327.529 61.7012 327.937 62.2812 328.467 62.6989C329.004 63.1098 329.653 63.3153 330.416 63.3153C331.211 63.3153 331.877 63.1032 332.414 62.679C332.951 62.2481 333.356 61.6615 333.627 60.919C333.906 60.17 334.045 59.3182 334.045 58.3636C334.045 57.4157 333.909 56.5739 333.637 55.8381C333.366 55.1023 332.961 54.5256 332.424 54.108C331.887 53.6903 331.218 53.4815 330.416 53.4815C329.647 53.4815 328.994 53.6837 328.457 54.0881C327.92 54.4924 327.512 55.0592 327.234 55.7884C326.962 56.5175 326.826 57.3759 326.826 58.3636ZM342.673 55.6989H347.177C349.126 55.6989 350.634 56.1728 351.701 57.1207C352.768 58.0687 353.305 59.3116 353.312 60.8494C353.305 61.8504 353.06 62.7386 352.576 63.5142C352.099 64.2898 351.403 64.8996 350.488 65.3438C349.58 65.7812 348.476 66 347.177 66H340.236V50.7273H343.707V63.0469H347.177C347.959 63.0469 348.602 62.848 349.106 62.4503C349.61 62.0459 349.861 61.5289 349.861 60.8991C349.861 60.2363 349.61 59.696 349.106 59.2784C348.602 58.8608 347.959 58.652 347.177 58.652H342.673V55.6989ZM355.211 66V50.7273H358.81V66H355.211ZM375.277 71.1903V45.6364H378.887V71.1903H375.277ZM375.277 66.2983C374.157 66.2983 373.133 66.1094 372.205 65.7315C371.277 65.3537 370.475 64.8168 369.799 64.1207C369.129 63.4247 368.609 62.5961 368.238 61.6349C367.873 60.6671 367.691 59.5966 367.691 58.4233C367.691 57.25 367.873 56.1795 368.238 55.2116C368.609 54.2438 369.129 53.4119 369.799 52.7159C370.475 52.0133 371.277 51.473 372.205 51.0952C373.133 50.7173 374.157 50.5284 375.277 50.5284H376.043V66.2983H375.277ZM375.277 63.3949H375.725V53.4318H375.277C374.641 53.4318 374.078 53.5644 373.587 53.8295C373.103 54.0881 372.695 54.4493 372.364 54.9134C372.039 55.3707 371.791 55.901 371.618 56.5043C371.453 57.1009 371.37 57.7405 371.37 58.4233C371.37 59.3314 371.519 60.1634 371.817 60.919C372.115 61.6681 372.553 62.268 373.13 62.7188C373.713 63.1695 374.429 63.3949 375.277 63.3949ZM378.887 66.2983H378.121V50.5284H378.887C380.007 50.5284 381.031 50.7173 381.959 51.0952C382.887 51.473 383.686 52.0133 384.355 52.7159C385.032 53.4119 385.552 54.2438 385.917 55.2116C386.288 56.1795 386.473 57.25 386.473 58.4233C386.473 59.5966 386.288 60.6671 385.917 61.6349C385.552 62.5961 385.032 63.4247 384.355 64.1207C383.686 64.8168 382.887 65.3537 381.959 65.7315C381.031 66.1094 380.007 66.2983 378.887 66.2983ZM378.887 63.3949C379.53 63.3949 380.093 63.2656 380.577 63.0071C381.061 62.7486 381.465 62.3906 381.79 61.9332C382.122 61.4759 382.37 60.9489 382.536 60.3523C382.702 59.7491 382.784 59.1061 382.784 58.4233C382.784 57.5152 382.639 56.6832 382.347 55.9276C382.055 55.1719 381.618 54.5687 381.034 54.1179C380.458 53.6605 379.742 53.4318 378.887 53.4318H378.439V63.3949H378.887ZM392.421 61.1278L398.536 50.7273H402.235V66H398.755V55.5895L392.66 66H388.951V50.7273H392.421V61.1278ZM415.862 56.8722V59.8253H407.728V56.8722H415.862ZM408.842 50.7273V66H405.371V50.7273H408.842ZM418.218 50.7273V66H414.758V50.7273H418.218ZM425.695 66.3082C424.727 66.3082 423.855 66.1359 423.08 65.7912C422.311 65.4399 421.701 64.9228 421.25 64.2401C420.806 63.5573 420.584 62.7154 420.584 61.7145C420.584 60.8527 420.743 60.1402 421.061 59.5767C421.379 59.0133 421.813 58.5625 422.364 58.2244C422.914 57.8864 423.534 57.6312 424.223 57.4588C424.919 57.2798 425.638 57.1506 426.381 57.071C427.276 56.9782 428.001 56.8954 428.558 56.8224C429.115 56.7429 429.519 56.6236 429.771 56.4645C430.03 56.2988 430.159 56.0436 430.159 55.6989V55.6392C430.159 54.8902 429.937 54.3101 429.493 53.8991C429.049 53.4882 428.409 53.2827 427.574 53.2827C426.692 53.2827 425.993 53.4749 425.476 53.8594C424.965 54.2438 424.621 54.6979 424.442 55.2216L421.081 54.7443C421.346 53.8163 421.784 53.0407 422.393 52.4176C423.003 51.7879 423.749 51.3172 424.631 51.0057C425.512 50.6875 426.487 50.5284 427.554 50.5284C428.29 50.5284 429.022 50.6146 429.751 50.7869C430.481 50.9593 431.147 51.2443 431.75 51.642C432.353 52.0331 432.837 52.5668 433.202 53.2429C433.573 53.919 433.759 54.7642 433.759 55.7784V66H430.298V63.902H430.179C429.96 64.3262 429.652 64.724 429.254 65.0952C428.863 65.4598 428.369 65.7547 427.773 65.9801C427.183 66.1989 426.49 66.3082 425.695 66.3082ZM426.629 63.6634C427.352 63.6634 427.978 63.5208 428.509 63.2358C429.039 62.9441 429.447 62.5597 429.732 62.0824C430.023 61.6051 430.169 61.0848 430.169 60.5213V58.7216C430.056 58.8144 429.864 58.9006 429.592 58.9801C429.327 59.0597 429.029 59.1293 428.697 59.1889C428.366 59.2486 428.038 59.3016 427.713 59.348C427.388 59.3944 427.107 59.4342 426.868 59.4673C426.331 59.5402 425.85 59.6596 425.426 59.8253C425.002 59.991 424.667 60.223 424.422 60.5213C424.177 60.813 424.054 61.1908 424.054 61.6548C424.054 62.3177 424.296 62.8182 424.78 63.1562C425.264 63.4943 425.88 63.6634 426.629 63.6634ZM447.308 56.8722V59.8253H439.174V56.8722H447.308ZM440.288 50.7273V66H436.818V50.7273H440.288ZM449.664 50.7273V66H446.204V50.7273H449.664ZM459.408 66.2983C457.883 66.2983 456.574 65.9635 455.481 65.294C454.393 64.6245 453.555 63.6998 452.965 62.5199C452.382 61.3333 452.09 59.9678 452.09 58.4233C452.09 56.8722 452.388 55.5033 452.985 54.3168C453.581 53.1236 454.423 52.1955 455.51 51.5327C456.604 50.8632 457.897 50.5284 459.388 50.5284C460.628 50.5284 461.725 50.7571 462.679 51.2145C463.641 51.6652 464.406 52.3049 464.976 53.1335C465.546 53.9555 465.871 54.9167 465.951 56.017H462.51C462.371 55.2812 462.04 54.6681 461.516 54.1776C460.999 53.6804 460.306 53.4318 459.438 53.4318C458.702 53.4318 458.056 53.6307 457.499 54.0284C456.942 54.4195 456.508 54.983 456.196 55.7188C455.892 56.4545 455.739 57.3362 455.739 58.3636C455.739 59.4044 455.892 60.2992 456.196 61.0483C456.501 61.7907 456.929 62.3641 457.479 62.7685C458.036 63.1662 458.689 63.3651 459.438 63.3651C459.968 63.3651 460.442 63.2656 460.86 63.0668C461.284 62.8613 461.639 62.5663 461.924 62.1818C462.209 61.7973 462.404 61.33 462.51 60.7798H465.951C465.865 61.8603 465.546 62.8182 464.996 63.6534C464.446 64.482 463.697 65.1316 462.749 65.6023C461.801 66.0663 460.687 66.2983 459.408 66.2983ZM475.008 66.2983C473.517 66.2983 472.224 65.9702 471.13 65.3139C470.037 64.6577 469.188 63.7396 468.585 62.5597C467.988 61.3797 467.69 60.0009 467.69 58.4233C467.69 56.8456 467.988 55.4635 468.585 54.277C469.188 53.0904 470.037 52.169 471.13 51.5128C472.224 50.8565 473.517 50.5284 475.008 50.5284C476.5 50.5284 477.792 50.8565 478.886 51.5128C479.98 52.169 480.825 53.0904 481.422 54.277C482.025 55.4635 482.326 56.8456 482.326 58.4233C482.326 60.0009 482.025 61.3797 481.422 62.5597C480.825 63.7396 479.98 64.6577 478.886 65.3139C477.792 65.9702 476.5 66.2983 475.008 66.2983ZM475.028 63.4148C475.837 63.4148 476.513 63.1927 477.057 62.7486C477.6 62.2978 478.004 61.6946 478.27 60.9389C478.541 60.1832 478.677 59.3414 478.677 58.4134C478.677 57.4787 478.541 56.6335 478.27 55.8778C478.004 55.1155 477.6 54.509 477.057 54.0582C476.513 53.6075 475.837 53.3821 475.028 53.3821C474.2 53.3821 473.51 53.6075 472.96 54.0582C472.416 54.509 472.009 55.1155 471.737 55.8778C471.472 56.6335 471.339 57.4787 471.339 58.4134C471.339 59.3414 471.472 60.1832 471.737 60.9389C472.009 61.6946 472.416 62.2978 472.96 62.7486C473.51 63.1927 474.2 63.4148 475.028 63.4148ZM484.821 66V50.7273H491.235C493.044 50.7273 494.473 51.0885 495.52 51.8111C496.574 52.5336 497.101 53.5412 497.101 54.8338C497.101 55.6889 496.803 56.3883 496.206 56.9318C495.616 57.4687 494.811 57.83 493.79 58.0156C494.592 58.0819 495.295 58.2841 495.898 58.6222C496.508 58.9602 496.985 59.4044 497.33 59.9545C497.675 60.5047 497.847 61.1378 497.847 61.8537C497.847 62.6955 497.625 63.428 497.181 64.0511C496.743 64.6676 496.104 65.1482 495.262 65.4929C494.427 65.831 493.412 66 492.219 66H484.821ZM488.192 63.1662H492.219C492.882 63.1662 493.402 63.0104 493.78 62.6989C494.158 62.3807 494.347 61.9498 494.347 61.4062C494.347 60.7765 494.158 60.2827 493.78 59.9247C493.402 59.5601 492.882 59.3778 492.219 59.3778H488.192V63.1662ZM488.192 57.0511H491.304C491.795 57.0511 492.216 56.9815 492.567 56.8423C492.919 56.6965 493.187 56.4943 493.373 56.2358C493.558 55.9706 493.651 55.6558 493.651 55.2912C493.651 54.7675 493.436 54.3565 493.005 54.0582C492.58 53.7599 491.991 53.6108 491.235 53.6108H488.192V57.0511ZM506.919 66.2983C505.428 66.2983 504.135 65.9702 503.042 65.3139C501.948 64.6577 501.099 63.7396 500.496 62.5597C499.9 61.3797 499.601 60.0009 499.601 58.4233C499.601 56.8456 499.9 55.4635 500.496 54.277C501.099 53.0904 501.948 52.169 503.042 51.5128C504.135 50.8565 505.428 50.5284 506.919 50.5284C508.411 50.5284 509.704 50.8565 510.797 51.5128C511.891 52.169 512.736 53.0904 513.333 54.277C513.936 55.4635 514.238 56.8456 514.238 58.4233C514.238 60.0009 513.936 61.3797 513.333 62.5597C512.736 63.7396 511.891 64.6577 510.797 65.3139C509.704 65.9702 508.411 66.2983 506.919 66.2983ZM506.939 63.4148C507.748 63.4148 508.424 63.1927 508.968 62.7486C509.511 62.2978 509.916 61.6946 510.181 60.9389C510.453 60.1832 510.589 59.3414 510.589 58.4134C510.589 57.4787 510.453 56.6335 510.181 55.8778C509.916 55.1155 509.511 54.509 508.968 54.0582C508.424 53.6075 507.748 53.3821 506.939 53.3821C506.111 53.3821 505.421 53.6075 504.871 54.0582C504.328 54.509 503.92 55.1155 503.648 55.8778C503.383 56.6335 503.25 57.4787 503.25 58.4134C503.25 59.3414 503.383 60.1832 503.648 60.9389C503.92 61.6946 504.328 62.2978 504.871 62.7486C505.421 63.1927 506.111 63.4148 506.939 63.4148ZM526.835 50.7273V53.6804H520.253V66H516.733V50.7273H526.835ZM535.194 66.2983C533.703 66.2983 532.41 65.9702 531.316 65.3139C530.222 64.6577 529.374 63.7396 528.771 62.5597C528.174 61.3797 527.876 60.0009 527.876 58.4233C527.876 56.8456 528.174 55.4635 528.771 54.277C529.374 53.0904 530.222 52.169 531.316 51.5128C532.41 50.8565 533.703 50.5284 535.194 50.5284C536.685 50.5284 537.978 50.8565 539.072 51.5128C540.166 52.169 541.011 53.0904 541.607 54.277C542.211 55.4635 542.512 56.8456 542.512 58.4233C542.512 60.0009 542.211 61.3797 541.607 62.5597C541.011 63.7396 540.166 64.6577 539.072 65.3139C537.978 65.9702 536.685 66.2983 535.194 66.2983ZM535.214 63.4148C536.023 63.4148 536.699 63.1927 537.242 62.7486C537.786 62.2978 538.19 61.6946 538.455 60.9389C538.727 60.1832 538.863 59.3414 538.863 58.4134C538.863 57.4787 538.727 56.6335 538.455 55.8778C538.19 55.1155 537.786 54.509 537.242 54.0582C536.699 53.6075 536.023 53.3821 535.214 53.3821C534.385 53.3821 533.696 53.6075 533.146 54.0582C532.602 54.509 532.194 55.1155 531.923 55.8778C531.658 56.6335 531.525 57.4787 531.525 58.4134C531.525 59.3414 531.658 60.1832 531.923 60.9389C532.194 61.6946 532.602 62.2978 533.146 62.7486C533.696 63.1927 534.385 63.4148 535.214 63.4148ZM558.054 66.2983C556.53 66.2983 555.221 65.9635 554.127 65.294C553.04 64.6245 552.201 63.6998 551.611 62.5199C551.028 61.3333 550.736 59.9678 550.736 58.4233C550.736 56.8722 551.035 55.5033 551.631 54.3168C552.228 53.1236 553.07 52.1955 554.157 51.5327C555.251 50.8632 556.543 50.5284 558.035 50.5284C559.274 50.5284 560.371 50.7571 561.326 51.2145C562.287 51.6652 563.053 52.3049 563.623 53.1335C564.193 53.9555 564.518 54.9167 564.597 56.017H561.157C561.018 55.2812 560.686 54.6681 560.162 54.1776C559.645 53.6804 558.953 53.4318 558.084 53.4318C557.349 53.4318 556.702 53.6307 556.145 54.0284C555.589 54.4195 555.154 54.983 554.843 55.7188C554.538 56.4545 554.385 57.3362 554.385 58.3636C554.385 59.4044 554.538 60.2992 554.843 61.0483C555.148 61.7907 555.575 62.3641 556.126 62.7685C556.682 63.1662 557.335 63.3651 558.084 63.3651C558.615 63.3651 559.089 63.2656 559.506 63.0668C559.93 62.8613 560.285 62.5663 560.57 62.1818C560.855 61.7973 561.051 61.33 561.157 60.7798H564.597C564.511 61.8603 564.193 62.8182 563.643 63.6534C563.092 64.482 562.343 65.1316 561.395 65.6023C560.447 66.0663 559.334 66.2983 558.054 66.2983ZM573.754 66.2983C572.223 66.2983 570.9 65.9801 569.787 65.3438C568.68 64.7008 567.828 63.7926 567.231 62.6193C566.635 61.4394 566.336 60.0507 566.336 58.4531C566.336 56.8821 566.635 55.5033 567.231 54.3168C567.835 53.1236 568.676 52.1955 569.757 51.5327C570.837 50.8632 572.107 50.5284 573.565 50.5284C574.506 50.5284 575.395 50.6809 576.23 50.9858C577.072 51.2841 577.814 51.7481 578.457 52.3778C579.107 53.0076 579.617 53.8097 579.988 54.7841C580.36 55.7519 580.545 56.9053 580.545 58.2443V59.348H568.027V56.9219H577.095C577.088 56.2325 576.939 55.6193 576.648 55.0824C576.356 54.5388 575.948 54.1113 575.425 53.7997C574.908 53.4882 574.304 53.3324 573.615 53.3324C572.879 53.3324 572.233 53.5114 571.676 53.8693C571.119 54.2206 570.685 54.6847 570.373 55.2614C570.069 55.8314 569.913 56.4579 569.906 57.1406V59.2585C569.906 60.1468 570.069 60.9091 570.393 61.5455C570.718 62.1752 571.172 62.6591 571.756 62.9972C572.339 63.3286 573.022 63.4943 573.804 63.4943C574.327 63.4943 574.801 63.4214 575.226 63.2756C575.65 63.1231 576.018 62.901 576.329 62.6094C576.641 62.3177 576.876 61.9564 577.035 61.5256L580.396 61.9034C580.184 62.7917 579.78 63.5672 579.183 64.2301C578.593 64.8864 577.837 65.3968 576.916 65.7614C575.995 66.1193 574.941 66.2983 573.754 66.2983ZM583.03 66V50.7273H586.63V56.892H587.942L592.536 50.7273H596.871L591.214 58.2244L596.931 66H592.576L588.39 60.2429H586.63V66H583.03ZM597.577 53.6804V50.7273H610.94V53.6804H605.998V66H602.518V53.6804H597.577ZM619.279 66.2983C617.788 66.2983 616.495 65.9702 615.401 65.3139C614.308 64.6577 613.459 63.7396 612.856 62.5597C612.259 61.3797 611.961 60.0009 611.961 58.4233C611.961 56.8456 612.259 55.4635 612.856 54.277C613.459 53.0904 614.308 52.169 615.401 51.5128C616.495 50.8565 617.788 50.5284 619.279 50.5284C620.771 50.5284 622.063 50.8565 623.157 51.5128C624.251 52.169 625.096 53.0904 625.693 54.277C626.296 55.4635 626.597 56.8456 626.597 58.4233C626.597 60.0009 626.296 61.3797 625.693 62.5597C625.096 63.7396 624.251 64.6577 623.157 65.3139C622.063 65.9702 620.771 66.2983 619.279 66.2983ZM619.299 63.4148C620.108 63.4148 620.784 63.1927 621.328 62.7486C621.871 62.2978 622.276 61.6946 622.541 60.9389C622.812 60.1832 622.948 59.3414 622.948 58.4134C622.948 57.4787 622.812 56.6335 622.541 55.8778C622.276 55.1155 621.871 54.509 621.328 54.0582C620.784 53.6075 620.108 53.3821 619.299 53.3821C618.471 53.3821 617.781 53.6075 617.231 54.0582C616.687 54.509 616.28 55.1155 616.008 55.8778C615.743 56.6335 615.61 57.4787 615.61 58.4134C615.61 59.3414 615.743 60.1832 616.008 60.9389C616.28 61.6946 616.687 62.2978 617.231 62.7486C617.781 63.1927 618.471 63.4148 619.299 63.4148ZM629.093 71.7273V50.7273H632.632V53.2528H632.841C633.027 52.8816 633.289 52.4872 633.627 52.0696C633.965 51.6454 634.422 51.2841 634.999 50.9858C635.575 50.6809 636.311 50.5284 637.206 50.5284C638.386 50.5284 639.45 50.83 640.398 51.4332C641.352 52.0298 642.108 52.9148 642.665 54.0881C643.228 55.2547 643.51 56.6866 643.51 58.3835C643.51 60.0606 643.235 61.4858 642.685 62.6591C642.135 63.8324 641.386 64.7273 640.438 65.3438C639.49 65.9602 638.416 66.2685 637.216 66.2685C636.341 66.2685 635.615 66.1226 635.039 65.831C634.462 65.5393 633.998 65.188 633.647 64.777C633.302 64.3594 633.033 63.965 632.841 63.5938H632.692V71.7273H629.093ZM632.622 58.3636C632.622 59.3513 632.762 60.2164 633.04 60.9588C633.325 61.7012 633.733 62.2812 634.263 62.6989C634.8 63.1098 635.45 63.3153 636.212 63.3153C637.007 63.3153 637.674 63.1032 638.21 62.679C638.747 62.2481 639.152 61.6615 639.424 60.919C639.702 60.17 639.841 59.3182 639.841 58.3636C639.841 57.4157 639.705 56.5739 639.433 55.8381C639.162 55.1023 638.757 54.5256 638.22 54.108C637.683 53.6903 637.014 53.4815 636.212 53.4815C635.443 53.4815 634.79 53.6837 634.253 54.0881C633.716 54.4924 633.308 55.0592 633.03 55.7884C632.758 56.5175 632.622 57.3759 632.622 58.3636ZM650.427 66.3082C649.46 66.3082 648.588 66.1359 647.812 65.7912C647.043 65.4399 646.434 64.9228 645.983 64.2401C645.539 63.5573 645.317 62.7154 645.317 61.7145C645.317 60.8527 645.476 60.1402 645.794 59.5767C646.112 59.0133 646.546 58.5625 647.096 58.2244C647.647 57.8864 648.266 57.6312 648.956 57.4588C649.652 57.2798 650.371 57.1506 651.114 57.071C652.008 56.9782 652.734 56.8954 653.291 56.8224C653.848 56.7429 654.252 56.6236 654.504 56.4645C654.763 56.2988 654.892 56.0436 654.892 55.6989V55.6392C654.892 54.8902 654.67 54.3101 654.226 53.8991C653.782 53.4882 653.142 53.2827 652.307 53.2827C651.425 53.2827 650.726 53.4749 650.209 53.8594C649.698 54.2438 649.354 54.6979 649.175 55.2216L645.814 54.7443C646.079 53.8163 646.516 53.0407 647.126 52.4176C647.736 51.7879 648.482 51.3172 649.364 51.0057C650.245 50.6875 651.22 50.5284 652.287 50.5284C653.023 50.5284 653.755 50.6146 654.484 50.7869C655.213 50.9593 655.88 51.2443 656.483 51.642C657.086 52.0331 657.57 52.5668 657.935 53.2429C658.306 53.919 658.491 54.7642 658.491 55.7784V66H655.031V63.902H654.912C654.693 64.3262 654.385 64.724 653.987 65.0952C653.596 65.4598 653.102 65.7547 652.506 65.9801C651.916 66.1989 651.223 66.3082 650.427 66.3082ZM651.362 63.6634C652.085 63.6634 652.711 63.5208 653.241 63.2358C653.772 62.9441 654.179 62.5597 654.464 62.0824C654.756 61.6051 654.902 61.0848 654.902 60.5213V58.7216C654.789 58.8144 654.597 58.9006 654.325 58.9801C654.06 59.0597 653.762 59.1293 653.43 59.1889C653.099 59.2486 652.771 59.3016 652.446 59.348C652.121 59.3944 651.839 59.4342 651.601 59.4673C651.064 59.5402 650.583 59.6596 650.159 59.8253C649.735 59.991 649.4 60.223 649.155 60.5213C648.909 60.813 648.787 61.1908 648.787 61.6548C648.787 62.3177 649.029 62.8182 649.513 63.1562C649.997 63.4943 650.613 63.6634 651.362 63.6634Z" fill="white" fill-opacity="0.96"/>
<path d="M41.7614 111V96.4545H46.6761C47.8172 96.4545 48.75 96.6605 49.4744 97.0724C50.2036 97.4796 50.7434 98.0312 51.0938 98.7273C51.4441 99.4233 51.6193 100.2 51.6193 101.057C51.6193 101.914 51.4441 102.693 51.0938 103.393C50.7481 104.094 50.2131 104.653 49.4886 105.07C48.7642 105.482 47.8362 105.688 46.7045 105.688H43.1818V104.125H46.6477C47.429 104.125 48.0563 103.99 48.5298 103.72C49.0033 103.45 49.3466 103.086 49.5597 102.626C49.7775 102.162 49.8864 101.639 49.8864 101.057C49.8864 100.474 49.7775 99.9536 49.5597 99.4943C49.3466 99.035 49.0009 98.6752 48.5227 98.4148C48.0445 98.1496 47.41 98.017 46.6193 98.017H43.5227V111H41.7614ZM57.4396 111.256C56.7483 111.256 56.121 111.125 55.5575 110.865C54.9941 110.6 54.5466 110.219 54.2152 109.722C53.8838 109.22 53.718 108.614 53.718 107.903C53.718 107.278 53.8411 106.772 54.0874 106.384C54.3336 105.991 54.6626 105.683 55.0746 105.46C55.4865 105.238 55.9411 105.072 56.4382 104.963C56.9401 104.849 57.4444 104.759 57.951 104.693C58.6139 104.608 59.1513 104.544 59.5632 104.501C59.9799 104.454 60.2829 104.376 60.4723 104.267C60.6664 104.158 60.7635 103.969 60.7635 103.699V103.642C60.7635 102.941 60.5717 102.397 60.1882 102.009C59.8094 101.62 59.2341 101.426 58.4624 101.426C57.6622 101.426 57.0348 101.601 56.5803 101.952C56.1257 102.302 55.8061 102.676 55.6214 103.074L54.0305 102.506C54.3146 101.843 54.6934 101.327 55.1669 100.957C55.6451 100.583 56.166 100.323 56.7294 100.176C57.2976 100.025 57.8563 99.9489 58.4055 99.9489C58.7559 99.9489 59.1584 99.9915 59.6129 100.077C60.0722 100.157 60.5149 100.325 60.9411 100.581C61.3719 100.837 61.7294 101.223 62.0135 101.739C62.2976 102.255 62.4396 102.946 62.4396 103.812V111H60.7635V109.523H60.6783C60.5646 109.759 60.3752 110.013 60.1101 110.283C59.8449 110.553 59.4922 110.782 59.0518 110.972C58.6115 111.161 58.0741 111.256 57.4396 111.256ZM57.6953 109.75C58.3582 109.75 58.9169 109.62 59.3714 109.359C59.8307 109.099 60.1764 108.763 60.4084 108.351C60.6451 107.939 60.7635 107.506 60.7635 107.051V105.517C60.6925 105.602 60.5362 105.68 60.2947 105.751C60.058 105.818 59.7834 105.877 59.4709 105.929C59.1631 105.976 58.8625 106.019 58.5689 106.057C58.2801 106.09 58.0457 106.118 57.8658 106.142C57.4302 106.199 57.023 106.291 56.6442 106.419C56.2701 106.542 55.9671 106.729 55.7351 106.98C55.5078 107.226 55.3942 107.562 55.3942 107.989C55.3942 108.571 55.6096 109.011 56.0405 109.31C56.4761 109.603 57.0277 109.75 57.6953 109.75ZM69.9308 111.227C68.908 111.227 68.0273 110.986 67.2887 110.503C66.5501 110.02 65.9819 109.355 65.5842 108.507C65.1864 107.66 64.9876 106.691 64.9876 105.602C64.9876 104.494 65.1912 103.517 65.5984 102.669C66.0103 101.817 66.5832 101.152 67.3171 100.673C68.0558 100.19 68.9175 99.9489 69.9023 99.9489C70.6694 99.9489 71.3607 100.091 71.9762 100.375C72.5917 100.659 73.096 101.057 73.489 101.568C73.882 102.08 74.1258 102.676 74.2205 103.358H72.5444C72.4165 102.861 72.1325 102.42 71.6921 102.037C71.2565 101.649 70.6694 101.455 69.9308 101.455C69.2773 101.455 68.7044 101.625 68.212 101.966C67.7243 102.302 67.3432 102.778 67.0685 103.393C66.7987 104.004 66.6637 104.722 66.6637 105.545C66.6637 106.388 66.7963 107.122 67.0614 107.747C67.3313 108.372 67.7101 108.857 68.1978 109.203C68.6902 109.549 69.2679 109.722 69.9308 109.722C70.3664 109.722 70.7617 109.646 71.1168 109.494C71.4719 109.343 71.7726 109.125 72.0188 108.841C72.265 108.557 72.4402 108.216 72.5444 107.818H74.2205C74.1258 108.462 73.8915 109.042 73.5174 109.558C73.1481 110.07 72.658 110.477 72.0472 110.78C71.4412 111.078 70.7357 111.227 69.9308 111.227ZM81.1026 111.227C80.0799 111.227 79.1992 110.986 78.4606 110.503C77.7219 110.02 77.1538 109.355 76.756 108.507C76.3583 107.66 76.1594 106.691 76.1594 105.602C76.1594 104.494 76.363 103.517 76.7702 102.669C77.1822 101.817 77.7551 101.152 78.489 100.673C79.2276 100.19 80.0894 99.9489 81.0742 99.9489C81.8413 99.9489 82.5326 100.091 83.1481 100.375C83.7636 100.659 84.2679 101.057 84.6609 101.568C85.0539 102.08 85.2977 102.676 85.3924 103.358H83.7163C83.5884 102.861 83.3043 102.42 82.864 102.037C82.4284 101.649 81.8413 101.455 81.1026 101.455C80.4492 101.455 79.8763 101.625 79.3839 101.966C78.8962 102.302 78.515 102.778 78.2404 103.393C77.9705 104.004 77.8356 104.722 77.8356 105.545C77.8356 106.388 77.9682 107.122 78.2333 107.747C78.5032 108.372 78.882 108.857 79.3697 109.203C79.8621 109.549 80.4397 109.722 81.1026 109.722C81.5382 109.722 81.9336 109.646 82.2887 109.494C82.6438 109.343 82.9445 109.125 83.1907 108.841C83.4369 108.557 83.6121 108.216 83.7163 107.818H85.3924C85.2977 108.462 85.0633 109.042 84.6893 109.558C84.32 110.07 83.8299 110.477 83.2191 110.78C82.613 111.078 81.9076 111.227 81.1026 111.227ZM87.8427 111V100.091H89.5188V104.835H90.6268L94.5472 100.091H96.7063L92.3029 105.347L96.7631 111H94.604L91.0245 106.398H89.5188V111H87.8427ZM101.795 111.256C101.104 111.256 100.476 111.125 99.913 110.865C99.3496 110.6 98.9021 110.219 98.5707 109.722C98.2392 109.22 98.0735 108.614 98.0735 107.903C98.0735 107.278 98.1966 106.772 98.4428 106.384C98.689 105.991 99.0181 105.683 99.43 105.46C99.842 105.238 100.297 105.072 100.794 104.963C101.296 104.849 101.8 104.759 102.306 104.693C102.969 104.608 103.507 104.544 103.919 104.501C104.335 104.454 104.638 104.376 104.828 104.267C105.022 104.158 105.119 103.969 105.119 103.699V103.642C105.119 102.941 104.927 102.397 104.544 102.009C104.165 101.62 103.59 101.426 102.818 101.426C102.018 101.426 101.39 101.601 100.936 101.952C100.481 102.302 100.162 102.676 99.9769 103.074L98.386 102.506C98.6701 101.843 99.0489 101.327 99.5224 100.957C100.001 100.583 100.521 100.323 101.085 100.176C101.653 100.025 102.212 99.9489 102.761 99.9489C103.111 99.9489 103.514 99.9915 103.968 100.077C104.428 100.157 104.87 100.325 105.297 100.581C105.727 100.837 106.085 101.223 106.369 101.739C106.653 102.255 106.795 102.946 106.795 103.812V111H105.119V109.523H105.034C104.92 109.759 104.731 110.013 104.466 110.283C104.2 110.553 103.848 110.782 103.407 110.972C102.967 111.161 102.43 111.256 101.795 111.256ZM102.051 109.75C102.714 109.75 103.272 109.62 103.727 109.359C104.186 109.099 104.532 108.763 104.764 108.351C105.001 107.939 105.119 107.506 105.119 107.051V105.517C105.048 105.602 104.892 105.68 104.65 105.751C104.413 105.818 104.139 105.877 103.826 105.929C103.519 105.976 103.218 106.019 102.924 106.057C102.636 106.09 102.401 106.118 102.221 106.142C101.786 106.199 101.378 106.291 101 106.419C100.626 106.542 100.323 106.729 100.091 106.98C99.8633 107.226 99.7496 107.562 99.7496 107.989C99.7496 108.571 99.9651 109.011 100.396 109.31C100.832 109.603 101.383 109.75 102.051 109.75ZM109.173 111L113.604 105.46L109.229 100.091H111.218L114.854 104.75H115.763V100.091H117.44V104.75H118.32L121.957 100.091H123.945L119.599 105.46L124.002 111H121.985L118.292 106.312H117.44V111H115.763V106.312H114.911L111.19 111H109.173ZM130.522 111.227C129.471 111.227 128.564 110.995 127.802 110.531C127.044 110.062 126.46 109.409 126.048 108.571C125.64 107.728 125.437 106.748 125.437 105.631C125.437 104.513 125.64 103.528 126.048 102.676C126.46 101.819 127.032 101.152 127.766 100.673C128.505 100.19 129.367 99.9489 130.352 99.9489C130.92 99.9489 131.481 100.044 132.035 100.233C132.589 100.422 133.093 100.73 133.548 101.156C134.002 101.578 134.364 102.136 134.634 102.832C134.904 103.528 135.039 104.385 135.039 105.403V106.114H126.63V104.665H133.335C133.335 104.049 133.211 103.5 132.965 103.017C132.724 102.534 132.378 102.153 131.928 101.874C131.483 101.594 130.958 101.455 130.352 101.455C129.684 101.455 129.106 101.62 128.619 101.952C128.136 102.278 127.764 102.705 127.504 103.23C127.243 103.756 127.113 104.319 127.113 104.92V105.886C127.113 106.71 127.255 107.409 127.539 107.982C127.828 108.55 128.228 108.983 128.739 109.281C129.251 109.575 129.845 109.722 130.522 109.722C130.962 109.722 131.36 109.66 131.715 109.537C132.075 109.409 132.385 109.22 132.646 108.969C132.906 108.713 133.107 108.396 133.249 108.017L134.869 108.472C134.698 109.021 134.412 109.504 134.009 109.92C133.607 110.332 133.11 110.654 132.518 110.886C131.926 111.114 131.261 111.227 130.522 111.227ZM143.555 108.727L147.362 100.091H148.952L144.237 111H142.873L138.242 100.091H139.805L143.555 108.727ZM139.265 100.091V111H137.589V100.091H139.265ZM147.844 111V100.091H149.521V111H147.844ZM162.646 111.227C161.661 111.227 160.797 110.993 160.053 110.524C159.315 110.055 158.737 109.4 158.32 108.557C157.908 107.714 157.702 106.729 157.702 105.602C157.702 104.466 157.908 103.474 158.32 102.626C158.737 101.779 159.315 101.121 160.053 100.652C160.797 100.183 161.661 99.9489 162.646 99.9489C163.63 99.9489 164.492 100.183 165.231 100.652C165.974 101.121 166.552 101.779 166.964 102.626C167.38 103.474 167.589 104.466 167.589 105.602C167.589 106.729 167.38 107.714 166.964 108.557C166.552 109.4 165.974 110.055 165.231 110.524C164.492 110.993 163.63 111.227 162.646 111.227ZM162.646 109.722C163.394 109.722 164.009 109.53 164.492 109.146C164.975 108.763 165.333 108.259 165.565 107.634C165.797 107.009 165.913 106.331 165.913 105.602C165.913 104.873 165.797 104.194 165.565 103.564C165.333 102.934 164.975 102.425 164.492 102.037C164.009 101.649 163.394 101.455 162.646 101.455C161.897 101.455 161.282 101.649 160.799 102.037C160.316 102.425 159.959 102.934 159.727 103.564C159.495 104.194 159.379 104.873 159.379 105.602C159.379 106.331 159.495 107.009 159.727 107.634C159.959 108.259 160.316 108.763 160.799 109.146C161.282 109.53 161.897 109.722 162.646 109.722ZM174.608 114.125V109.438H175.517C175.739 109.205 175.931 108.955 176.092 108.685C176.253 108.415 176.393 108.095 176.511 107.726C176.634 107.352 176.738 106.897 176.824 106.362C176.909 105.822 176.984 105.171 177.051 104.409L177.42 100.091H184.352V109.438H186.028V114.125H184.352V111H176.284V114.125H174.608ZM177.42 109.438H182.676V101.653H178.983L178.699 104.409C178.58 105.55 178.433 106.547 178.258 107.399C178.083 108.251 177.804 108.931 177.42 109.438ZM192.685 111.227C191.7 111.227 190.836 110.993 190.092 110.524C189.354 110.055 188.776 109.4 188.359 108.557C187.947 107.714 187.741 106.729 187.741 105.602C187.741 104.466 187.947 103.474 188.359 102.626C188.776 101.779 189.354 101.121 190.092 100.652C190.836 100.183 191.7 99.9489 192.685 99.9489C193.67 99.9489 194.531 100.183 195.27 100.652C196.013 101.121 196.591 101.779 197.003 102.626C197.42 103.474 197.628 104.466 197.628 105.602C197.628 106.729 197.42 107.714 197.003 108.557C196.591 109.4 196.013 110.055 195.27 110.524C194.531 110.993 193.67 111.227 192.685 111.227ZM192.685 109.722C193.433 109.722 194.048 109.53 194.531 109.146C195.014 108.763 195.372 108.259 195.604 107.634C195.836 107.009 195.952 106.331 195.952 105.602C195.952 104.873 195.836 104.194 195.604 103.564C195.372 102.934 195.014 102.425 194.531 102.037C194.048 101.649 193.433 101.455 192.685 101.455C191.937 101.455 191.321 101.649 190.838 102.037C190.355 102.425 189.998 102.934 189.766 103.564C189.534 104.194 189.418 104.873 189.418 105.602C189.418 106.331 189.534 107.009 189.766 107.634C189.998 108.259 190.355 108.763 190.838 109.146C191.321 109.53 191.937 109.722 192.685 109.722ZM204.618 111.227C203.596 111.227 202.715 110.986 201.976 110.503C201.238 110.02 200.669 109.355 200.272 108.507C199.874 107.66 199.675 106.691 199.675 105.602C199.675 104.494 199.879 103.517 200.286 102.669C200.698 101.817 201.271 101.152 202.005 100.673C202.743 100.19 203.605 99.9489 204.59 99.9489C205.357 99.9489 206.048 100.091 206.664 100.375C207.279 100.659 207.783 101.057 208.176 101.568C208.569 102.08 208.813 102.676 208.908 103.358H207.232C207.104 102.861 206.82 102.42 206.38 102.037C205.944 101.649 205.357 101.455 204.618 101.455C203.965 101.455 203.392 101.625 202.9 101.966C202.412 102.302 202.031 102.778 201.756 103.393C201.486 104.004 201.351 104.722 201.351 105.545C201.351 106.388 201.484 107.122 201.749 107.747C202.019 108.372 202.398 108.857 202.885 109.203C203.378 109.549 203.955 109.722 204.618 109.722C205.054 109.722 205.449 109.646 205.804 109.494C206.159 109.343 206.46 109.125 206.706 108.841C206.953 108.557 207.128 108.216 207.232 107.818H208.908C208.813 108.462 208.579 109.042 208.205 109.558C207.836 110.07 207.346 110.477 206.735 110.78C206.129 111.078 205.423 111.227 204.618 111.227ZM210.499 101.653V100.091H219.363V101.653H215.783V111H214.107V101.653H210.499ZM223.484 108.528L228.739 100.091H230.671V111H228.995V102.562L223.768 111H221.808V100.091H223.484V108.528ZM233.059 111L237.491 105.46L233.116 100.091H235.105L238.741 104.75H239.65V100.091H241.326V104.75H242.207L245.843 100.091H247.832L243.485 105.46L247.889 111H245.872L242.179 106.312H241.326V111H239.65V106.312H238.798L235.076 111H233.059ZM254.409 111.227C253.358 111.227 252.451 110.995 251.689 110.531C250.931 110.062 250.346 109.409 249.934 108.571C249.527 107.728 249.324 106.748 249.324 105.631C249.324 104.513 249.527 103.528 249.934 102.676C250.346 101.819 250.919 101.152 251.653 100.673C252.392 100.19 253.253 99.9489 254.238 99.9489C254.806 99.9489 255.368 100.044 255.922 100.233C256.475 100.422 256.98 100.73 257.434 101.156C257.889 101.578 258.251 102.136 258.521 102.832C258.791 103.528 258.926 104.385 258.926 105.403V106.114H250.517V104.665H257.221C257.221 104.049 257.098 103.5 256.852 103.017C256.61 102.534 256.265 102.153 255.815 101.874C255.37 101.594 254.844 101.455 254.238 101.455C253.571 101.455 252.993 101.62 252.505 101.952C252.022 102.278 251.651 102.705 251.39 103.23C251.13 103.756 251 104.319 251 104.92V105.886C251 106.71 251.142 107.409 251.426 107.982C251.715 108.55 252.115 108.983 252.626 109.281C253.137 109.575 253.732 109.722 254.409 109.722C254.849 109.722 255.247 109.66 255.602 109.537C255.962 109.409 256.272 109.22 256.532 108.969C256.793 108.713 256.994 108.396 257.136 108.017L258.755 108.472C258.585 109.021 258.298 109.504 257.896 109.92C257.493 110.332 256.996 110.654 256.404 110.886C255.813 111.114 255.147 111.227 254.409 111.227ZM268.777 104.778V106.341H262.754V104.778H268.777ZM263.152 100.091V111H261.475V100.091H263.152ZM270.055 100.091V111H268.379V100.091H270.055ZM274.792 108.528L280.048 100.091H281.98V111H280.304V102.562L275.076 111H273.116V100.091H274.792V108.528ZM291.612 111V101.625H288.714C288.061 101.625 287.547 101.777 287.173 102.08C286.799 102.383 286.612 102.799 286.612 103.33C286.612 103.85 286.78 104.26 287.116 104.558C287.457 104.857 287.924 105.006 288.516 105.006H292.038V106.568H288.516C287.777 106.568 287.14 106.438 286.605 106.178C286.07 105.917 285.658 105.545 285.369 105.062C285.08 104.575 284.936 103.997 284.936 103.33C284.936 102.657 285.088 102.08 285.391 101.597C285.694 101.114 286.127 100.742 286.69 100.482C287.259 100.221 287.933 100.091 288.714 100.091H293.203V111H291.612ZM284.339 111L287.436 105.574H289.254L286.158 111H284.339ZM297.53 100.091L300.144 104.551L302.757 100.091H304.689L301.167 105.545L304.689 111H302.757L300.144 106.767L297.53 111H295.598L299.064 105.545L295.598 100.091H297.53ZM314.382 108.528L319.638 100.091H321.57V111H319.893V102.562L314.666 111H312.706V100.091H314.382V108.528ZM334.696 111.227C333.712 111.227 332.847 110.993 332.104 110.524C331.365 110.055 330.788 109.4 330.371 108.557C329.959 107.714 329.753 106.729 329.753 105.602C329.753 104.466 329.959 103.474 330.371 102.626C330.788 101.779 331.365 101.121 332.104 100.652C332.847 100.183 333.712 99.9489 334.696 99.9489C335.681 99.9489 336.543 100.183 337.282 100.652C338.025 101.121 338.603 101.779 339.015 102.626C339.431 103.474 339.64 104.466 339.64 105.602C339.64 106.729 339.431 107.714 339.015 108.557C338.603 109.4 338.025 110.055 337.282 110.524C336.543 110.993 335.681 111.227 334.696 111.227ZM334.696 109.722C335.444 109.722 336.06 109.53 336.543 109.146C337.026 108.763 337.383 108.259 337.615 107.634C337.847 107.009 337.963 106.331 337.963 105.602C337.963 104.873 337.847 104.194 337.615 103.564C337.383 102.934 337.026 102.425 336.543 102.037C336.06 101.649 335.444 101.455 334.696 101.455C333.948 101.455 333.333 101.649 332.85 102.037C332.367 102.425 332.009 102.934 331.777 103.564C331.545 104.194 331.429 104.873 331.429 105.602C331.429 106.331 331.545 107.009 331.777 107.634C332.009 108.259 332.367 108.763 332.85 109.146C333.333 109.53 333.948 109.722 334.696 109.722ZM350.295 96L351.147 97.0227C350.816 97.3447 350.432 97.5696 349.996 97.6974C349.561 97.8253 349.068 97.9034 348.519 97.9318C347.97 97.9602 347.359 97.9886 346.687 98.017C345.929 98.0455 345.302 98.2301 344.805 98.571C344.308 98.9119 343.924 99.4044 343.654 100.048C343.384 100.692 343.211 101.483 343.136 102.42H343.278C343.647 101.739 344.158 101.237 344.812 100.915C345.465 100.593 346.166 100.432 346.914 100.432C347.766 100.432 348.533 100.631 349.215 101.028C349.897 101.426 350.437 102.016 350.835 102.797C351.232 103.578 351.431 104.542 351.431 105.688C351.431 106.829 351.228 107.813 350.82 108.642C350.418 109.471 349.852 110.11 349.123 110.56C348.398 111.005 347.549 111.227 346.573 111.227C345.598 111.227 344.743 110.998 344.009 110.538C343.275 110.074 342.705 109.388 342.298 108.479C341.89 107.565 341.687 106.436 341.687 105.091V103.926C341.687 101.497 342.099 99.6553 342.923 98.4006C343.751 97.1458 344.996 96.4972 346.658 96.4545C347.246 96.4356 347.769 96.4309 348.228 96.4403C348.687 96.4498 349.087 96.4285 349.428 96.3764C349.769 96.3243 350.058 96.1989 350.295 96ZM346.573 109.722C347.231 109.722 347.797 109.556 348.271 109.224C348.749 108.893 349.116 108.427 349.371 107.825C349.627 107.219 349.755 106.507 349.755 105.688C349.755 104.892 349.625 104.215 349.364 103.656C349.109 103.098 348.742 102.671 348.263 102.378C347.785 102.084 347.212 101.938 346.545 101.938C346.057 101.938 345.619 102.02 345.231 102.186C344.843 102.352 344.511 102.596 344.237 102.918C343.962 103.24 343.749 103.633 343.597 104.097C343.451 104.561 343.372 105.091 343.363 105.688C343.363 106.909 343.649 107.887 344.222 108.621C344.795 109.355 345.579 109.722 346.573 109.722ZM361.296 108.528L366.552 100.091H368.484V111H366.808V102.562L361.58 111H359.62V100.091H361.296V108.528ZM378.855 104.778V106.341H372.832V104.778H378.855ZM373.23 100.091V111H371.554V100.091H373.23ZM380.133 100.091V111H378.457V100.091H380.133ZM390.495 104.778V106.341H384.473V104.778H390.495ZM384.87 100.091V111H383.194V100.091H384.87ZM391.774 100.091V111H390.098V100.091H391.774ZM399.267 111.227C398.282 111.227 397.418 110.993 396.674 110.524C395.936 110.055 395.358 109.4 394.941 108.557C394.529 107.714 394.324 106.729 394.324 105.602C394.324 104.466 394.529 103.474 394.941 102.626C395.358 101.779 395.936 101.121 396.674 100.652C397.418 100.183 398.282 99.9489 399.267 99.9489C400.252 99.9489 401.113 100.183 401.852 100.652C402.595 101.121 403.173 101.779 403.585 102.626C404.002 103.474 404.21 104.466 404.21 105.602C404.21 106.729 404.002 107.714 403.585 108.557C403.173 109.4 402.595 110.055 401.852 110.524C401.113 110.993 400.252 111.227 399.267 111.227ZM399.267 109.722C400.015 109.722 400.63 109.53 401.113 109.146C401.596 108.763 401.954 108.259 402.186 107.634C402.418 107.009 402.534 106.331 402.534 105.602C402.534 104.873 402.418 104.194 402.186 103.564C401.954 102.934 401.596 102.425 401.113 102.037C400.63 101.649 400.015 101.455 399.267 101.455C398.519 101.455 397.903 101.649 397.42 102.037C396.937 102.425 396.58 102.934 396.348 103.564C396.116 104.194 396 104.873 396 105.602C396 106.331 396.116 107.009 396.348 107.634C396.58 108.259 396.937 108.763 397.42 109.146C397.903 109.53 398.519 109.722 399.267 109.722ZM406.768 111V100.091H411.229C412.403 100.091 413.336 100.356 414.027 100.886C414.718 101.417 415.064 102.117 415.064 102.989C415.064 103.652 414.867 104.165 414.474 104.53C414.081 104.89 413.577 105.134 412.962 105.261C413.364 105.318 413.755 105.46 414.134 105.688C414.517 105.915 414.834 106.227 415.085 106.625C415.336 107.018 415.462 107.501 415.462 108.074C415.462 108.633 415.32 109.132 415.036 109.572C414.751 110.013 414.344 110.361 413.814 110.616C413.284 110.872 412.649 111 411.911 111H406.768ZM408.359 109.466H411.911C412.488 109.466 412.94 109.329 413.267 109.054C413.594 108.779 413.757 108.405 413.757 107.932C413.757 107.368 413.594 106.926 413.267 106.604C412.94 106.277 412.488 106.114 411.911 106.114H408.359V109.466ZM408.359 104.665H411.229C411.679 104.665 412.064 104.603 412.386 104.48C412.708 104.352 412.955 104.172 413.125 103.94C413.3 103.704 413.388 103.424 413.388 103.102C413.388 102.643 413.196 102.283 412.812 102.023C412.429 101.758 411.901 101.625 411.229 101.625H408.359V104.665ZM421.209 111.256C420.518 111.256 419.891 111.125 419.327 110.865C418.764 110.6 418.316 110.219 417.985 109.722C417.653 109.22 417.488 108.614 417.488 107.903C417.488 107.278 417.611 106.772 417.857 106.384C418.103 105.991 418.432 105.683 418.844 105.46C419.256 105.238 419.711 105.072 420.208 104.963C420.71 104.849 421.214 104.759 421.721 104.693C422.383 104.608 422.921 104.544 423.333 104.501C423.749 104.454 424.052 104.376 424.242 104.267C424.436 104.158 424.533 103.969 424.533 103.699V103.642C424.533 102.941 424.341 102.397 423.958 102.009C423.579 101.62 423.004 101.426 422.232 101.426C421.432 101.426 420.804 101.601 420.35 101.952C419.895 102.302 419.576 102.676 419.391 103.074L417.8 102.506C418.084 101.843 418.463 101.327 418.936 100.957C419.415 100.583 419.935 100.323 420.499 100.176C421.067 100.025 421.626 99.9489 422.175 99.9489C422.525 99.9489 422.928 99.9915 423.382 100.077C423.842 100.157 424.284 100.325 424.711 100.581C425.141 100.837 425.499 101.223 425.783 101.739C426.067 102.255 426.209 102.946 426.209 103.812V111H424.533V109.523H424.448C424.334 109.759 424.145 110.013 423.88 110.283C423.614 110.553 423.262 110.782 422.821 110.972C422.381 111.161 421.844 111.256 421.209 111.256ZM421.465 109.75C422.128 109.75 422.686 109.62 423.141 109.359C423.6 109.099 423.946 108.763 424.178 108.351C424.415 107.939 424.533 107.506 424.533 107.051V105.517C424.462 105.602 424.306 105.68 424.064 105.751C423.828 105.818 423.553 105.877 423.24 105.929C422.933 105.976 422.632 106.019 422.338 106.057C422.05 106.09 421.815 106.118 421.635 106.142C421.2 106.199 420.792 106.291 420.414 106.419C420.04 106.542 419.737 106.729 419.505 106.98C419.277 107.226 419.164 107.562 419.164 107.989C419.164 108.571 419.379 109.011 419.81 109.31C420.246 109.603 420.797 109.75 421.465 109.75ZM437.848 100.091V109.438H439.382V114.523H437.706V111H429.268V100.091H430.945V109.438H436.172V100.091H437.848ZM443.64 108.528L448.896 100.091H450.827V111H449.151V102.562L443.924 111H441.964V100.091H443.64V108.528ZM460.46 111V101.625H457.562C456.909 101.625 456.395 101.777 456.021 102.08C455.647 102.383 455.46 102.799 455.46 103.33C455.46 103.85 455.628 104.26 455.964 104.558C456.305 104.857 456.771 105.006 457.363 105.006H460.886V106.568H457.363C456.625 106.568 455.988 106.438 455.453 106.178C454.918 105.917 454.506 105.545 454.217 105.062C453.928 104.575 453.784 103.997 453.784 103.33C453.784 102.657 453.935 102.08 454.238 101.597C454.541 101.114 454.975 100.742 455.538 100.482C456.106 100.221 456.781 100.091 457.562 100.091H462.051V111H460.46ZM453.187 111L456.284 105.574H458.102L455.005 111H453.187ZM466.378 100.091L468.991 104.551L471.605 100.091H473.537L470.014 105.545L473.537 111H471.605L468.991 106.767L466.378 111H464.446L467.912 105.545L464.446 100.091H466.378ZM41.5341 135V124.091H45.9943C47.1686 124.091 48.1013 124.356 48.7926 124.886C49.4839 125.417 49.8295 126.117 49.8295 126.989C49.8295 127.652 49.633 128.165 49.2401 128.53C48.8471 128.89 48.3428 129.134 47.7273 129.261C48.1297 129.318 48.5204 129.46 48.8991 129.688C49.2827 129.915 49.5999 130.227 49.8509 130.625C50.1018 131.018 50.2273 131.501 50.2273 132.074C50.2273 132.633 50.0852 133.132 49.8011 133.572C49.517 134.013 49.1098 134.361 48.5795 134.616C48.0492 134.872 47.4148 135 46.6761 135H41.5341ZM43.125 133.466H46.6761C47.2538 133.466 47.706 133.329 48.0327 133.054C48.3594 132.779 48.5227 132.405 48.5227 131.932C48.5227 131.368 48.3594 130.926 48.0327 130.604C47.706 130.277 47.2538 130.114 46.6761 130.114H43.125V133.466ZM43.125 128.665H45.9943C46.4441 128.665 46.83 128.603 47.152 128.48C47.474 128.352 47.7202 128.172 47.8906 127.94C48.0658 127.704 48.1534 127.424 48.1534 127.102C48.1534 126.643 47.9616 126.283 47.5781 126.023C47.1946 125.758 46.6667 125.625 45.9943 125.625H43.125V128.665ZM62.8214 138.722V120.455H64.4975V138.722H62.8214ZM62.8214 135.227C62.0827 135.227 61.4104 135.095 60.8043 134.83C60.1983 134.56 59.6774 134.179 59.2418 133.686C58.8062 133.189 58.4701 132.595 58.2333 131.903C57.9966 131.212 57.8782 130.445 57.8782 129.602C57.8782 128.75 57.9966 127.978 58.2333 127.287C58.4701 126.591 58.8062 125.994 59.2418 125.497C59.6774 125 60.1983 124.619 60.8043 124.354C61.4104 124.084 62.0827 123.949 62.8214 123.949H63.3327V135.227H62.8214ZM62.8214 133.722H63.1055V125.455H62.8214C62.2627 125.455 61.7773 125.568 61.3654 125.795C60.9535 126.018 60.6126 126.323 60.3427 126.712C60.0775 127.095 59.8787 127.536 59.7461 128.033C59.6183 128.53 59.5543 129.053 59.5543 129.602C59.5543 130.331 59.6703 131.009 59.9023 131.634C60.1344 132.259 60.4918 132.763 60.9748 133.146C61.4577 133.53 62.0733 133.722 62.8214 133.722ZM64.4975 135.227H63.9862V123.949H64.4975C65.2362 123.949 65.9085 124.084 66.5146 124.354C67.1206 124.619 67.6415 125 68.0771 125.497C68.5127 125.994 68.8488 126.591 69.0856 127.287C69.3223 127.978 69.4407 128.75 69.4407 129.602C69.4407 130.445 69.3223 131.212 69.0856 131.903C68.8488 132.595 68.5127 133.189 68.0771 133.686C67.6415 134.179 67.1206 134.56 66.5146 134.83C65.9085 135.095 65.2362 135.227 64.4975 135.227ZM64.4975 133.722C65.061 133.722 65.5463 133.613 65.9535 133.395C66.3654 133.172 66.704 132.869 66.9691 132.486C67.239 132.098 67.4379 131.657 67.5657 131.165C67.6983 130.668 67.7646 130.147 67.7646 129.602C67.7646 128.873 67.6486 128.194 67.4165 127.564C67.1845 126.934 66.8271 126.425 66.3441 126.037C65.8612 125.649 65.2456 125.455 64.4975 125.455H64.2134V133.722H64.4975ZM73.679 132.528L78.9347 124.091H80.8665V135H79.1903V126.562L73.9631 135H72.0028V124.091H73.679V132.528ZM91.2376 128.778V130.341H85.2148V128.778H91.2376ZM85.6126 124.091V135H83.9364V124.091H85.6126ZM92.516 124.091V135H90.8398V124.091H92.516ZM98.7873 135.256C98.096 135.256 97.4686 135.125 96.9052 134.865C96.3417 134.6 95.8943 134.219 95.5629 133.722C95.2314 133.22 95.0657 132.614 95.0657 131.903C95.0657 131.278 95.1888 130.772 95.435 130.384C95.6812 129.991 96.0103 129.683 96.4222 129.46C96.8342 129.238 97.2887 129.072 97.7859 128.963C98.2878 128.849 98.792 128.759 99.2987 128.693C99.9615 128.608 100.499 128.544 100.911 128.501C101.328 128.454 101.631 128.376 101.82 128.267C102.014 128.158 102.111 127.969 102.111 127.699V127.642C102.111 126.941 101.919 126.397 101.536 126.009C101.157 125.62 100.582 125.426 99.81 125.426C99.0098 125.426 98.3825 125.601 97.9279 125.952C97.4734 126.302 97.1538 126.676 96.9691 127.074L95.3782 126.506C95.6623 125.843 96.0411 125.327 96.5146 124.957C96.9928 124.583 97.5136 124.323 98.0771 124.176C98.6452 124.025 99.204 123.949 99.7532 123.949C100.104 123.949 100.506 123.991 100.961 124.077C101.42 124.157 101.863 124.325 102.289 124.581C102.72 124.837 103.077 125.223 103.361 125.739C103.645 126.255 103.787 126.946 103.787 127.812V135H102.111V133.523H102.026C101.912 133.759 101.723 134.013 101.458 134.283C101.193 134.553 100.84 134.782 100.4 134.972C99.9592 135.161 99.4218 135.256 98.7873 135.256ZM99.043 133.75C99.7058 133.75 100.265 133.62 100.719 133.359C101.178 133.099 101.524 132.763 101.756 132.351C101.993 131.939 102.111 131.506 102.111 131.051V129.517C102.04 129.602 101.884 129.68 101.642 129.751C101.406 129.818 101.131 129.877 100.819 129.929C100.511 129.976 100.21 130.019 99.9165 130.057C99.6277 130.09 99.3933 130.118 99.2134 130.142C98.7778 130.199 98.3706 130.291 97.9918 130.419C97.6178 130.542 97.3147 130.729 97.0827 130.98C96.8555 131.226 96.7418 131.562 96.7418 131.989C96.7418 132.571 96.9573 133.011 97.3881 133.31C97.8237 133.603 98.3754 133.75 99.043 133.75ZM114.148 128.778V130.341H108.125V128.778H114.148ZM108.523 124.091V135H106.847V124.091H108.523ZM115.426 124.091V135H113.75V124.091H115.426ZM122.919 135.227C121.896 135.227 121.016 134.986 120.277 134.503C119.538 134.02 118.97 133.355 118.572 132.507C118.175 131.66 117.976 130.691 117.976 129.602C117.976 128.494 118.179 127.517 118.587 126.669C118.999 125.817 119.571 125.152 120.305 124.673C121.044 124.19 121.906 123.949 122.891 123.949C123.658 123.949 124.349 124.091 124.964 124.375C125.58 124.659 126.084 125.057 126.477 125.568C126.87 126.08 127.114 126.676 127.209 127.358H125.533C125.405 126.861 125.121 126.42 124.68 126.037C124.245 125.649 123.658 125.455 122.919 125.455C122.266 125.455 121.693 125.625 121.2 125.966C120.713 126.302 120.331 126.778 120.057 127.393C119.787 128.004 119.652 128.722 119.652 129.545C119.652 130.388 119.785 131.122 120.05 131.747C120.32 132.372 120.698 132.857 121.186 133.203C121.679 133.549 122.256 133.722 122.919 133.722C123.355 133.722 123.75 133.646 124.105 133.494C124.46 133.343 124.761 133.125 125.007 132.841C125.253 132.557 125.429 132.216 125.533 131.818H127.209C127.114 132.462 126.88 133.042 126.506 133.558C126.136 134.07 125.646 134.477 125.036 134.78C124.429 135.078 123.724 135.227 122.919 135.227ZM134.091 135.227C133.106 135.227 132.242 134.993 131.499 134.524C130.76 134.055 130.182 133.4 129.766 132.557C129.354 131.714 129.148 130.729 129.148 129.602C129.148 128.466 129.354 127.474 129.766 126.626C130.182 125.779 130.76 125.121 131.499 124.652C132.242 124.183 133.106 123.949 134.091 123.949C135.076 123.949 135.938 124.183 136.676 124.652C137.42 125.121 137.997 125.779 138.409 126.626C138.826 127.474 139.034 128.466 139.034 129.602C139.034 130.729 138.826 131.714 138.409 132.557C137.997 133.4 137.42 134.055 136.676 134.524C135.938 134.993 135.076 135.227 134.091 135.227ZM134.091 133.722C134.839 133.722 135.455 133.53 135.938 133.146C136.42 132.763 136.778 132.259 137.01 131.634C137.242 131.009 137.358 130.331 137.358 129.602C137.358 128.873 137.242 128.194 137.01 127.564C136.778 126.934 136.42 126.425 135.938 126.037C135.455 125.649 134.839 125.455 134.091 125.455C133.343 125.455 132.727 125.649 132.244 126.037C131.761 126.425 131.404 126.934 131.172 127.564C130.94 128.194 130.824 128.873 130.824 129.602C130.824 130.331 130.94 131.009 131.172 131.634C131.404 132.259 131.761 132.763 132.244 133.146C132.727 133.53 133.343 133.722 134.091 133.722ZM141.593 135V124.091H146.053C147.227 124.091 148.16 124.356 148.851 124.886C149.542 125.417 149.888 126.117 149.888 126.989C149.888 127.652 149.692 128.165 149.299 128.53C148.906 128.89 148.401 129.134 147.786 129.261C148.188 129.318 148.579 129.46 148.958 129.688C149.341 129.915 149.658 130.227 149.909 130.625C150.16 131.018 150.286 131.501 150.286 132.074C150.286 132.633 150.144 133.132 149.86 133.572C149.576 134.013 149.168 134.361 148.638 134.616C148.108 134.872 147.473 135 146.735 135H141.593ZM143.184 133.466H146.735C147.312 133.466 147.765 133.329 148.091 133.054C148.418 132.779 148.581 132.405 148.581 131.932C148.581 131.368 148.418 130.926 148.091 130.604C147.765 130.277 147.312 130.114 146.735 130.114H143.184V133.466ZM143.184 128.665H146.053C146.503 128.665 146.889 128.603 147.211 128.48C147.533 128.352 147.779 128.172 147.949 127.94C148.124 127.704 148.212 127.424 148.212 127.102C148.212 126.643 148.02 126.283 147.637 126.023C147.253 125.758 146.725 125.625 146.053 125.625H143.184V128.665ZM157.255 135.227C156.27 135.227 155.406 134.993 154.663 134.524C153.924 134.055 153.346 133.4 152.93 132.557C152.518 131.714 152.312 130.729 152.312 129.602C152.312 128.466 152.518 127.474 152.93 126.626C153.346 125.779 153.924 125.121 154.663 124.652C155.406 124.183 156.27 123.949 157.255 123.949C158.24 123.949 159.102 124.183 159.84 124.652C160.584 125.121 161.161 125.779 161.573 126.626C161.99 127.474 162.198 128.466 162.198 129.602C162.198 130.729 161.99 131.714 161.573 132.557C161.161 133.4 160.584 134.055 159.84 134.524C159.102 134.993 158.24 135.227 157.255 135.227ZM157.255 133.722C158.003 133.722 158.619 133.53 159.102 133.146C159.585 132.763 159.942 132.259 160.174 131.634C160.406 131.009 160.522 130.331 160.522 129.602C160.522 128.873 160.406 128.194 160.174 127.564C159.942 126.934 159.585 126.425 159.102 126.037C158.619 125.649 158.003 125.455 157.255 125.455C156.507 125.455 155.891 125.649 155.408 126.037C154.925 126.425 154.568 126.934 154.336 127.564C154.104 128.194 153.988 128.873 153.988 129.602C153.988 130.331 154.104 131.009 154.336 131.634C154.568 132.259 154.925 132.763 155.408 133.146C155.891 133.53 156.507 133.722 157.255 133.722ZM166.433 132.528L171.689 124.091H173.62V135H171.944V126.562L166.717 135H164.757V124.091H166.433V132.528ZM170.581 120.455H172.143C172.143 121.222 171.878 121.849 171.348 122.337C170.817 122.824 170.098 123.068 169.189 123.068C168.294 123.068 167.581 122.824 167.051 122.337C166.525 121.849 166.262 121.222 166.262 120.455H167.825C167.825 120.824 167.927 121.148 168.13 121.428C168.339 121.707 168.691 121.847 169.189 121.847C169.686 121.847 170.041 121.707 170.254 121.428C170.472 121.148 170.581 120.824 170.581 120.455ZM186.747 135.227C185.724 135.227 184.844 134.986 184.105 134.503C183.366 134.02 182.798 133.355 182.401 132.507C182.003 131.66 181.804 130.691 181.804 129.602C181.804 128.494 182.008 127.517 182.415 126.669C182.827 125.817 183.4 125.152 184.134 124.673C184.872 124.19 185.734 123.949 186.719 123.949C187.486 123.949 188.177 124.091 188.793 124.375C189.408 124.659 189.912 125.057 190.305 125.568C190.698 126.08 190.942 126.676 191.037 127.358H189.361C189.233 126.861 188.949 126.42 188.509 126.037C188.073 125.649 187.486 125.455 186.747 125.455C186.094 125.455 185.521 125.625 185.028 125.966C184.541 126.302 184.16 126.778 183.885 127.393C183.615 128.004 183.48 128.722 183.48 129.545C183.48 130.388 183.613 131.122 183.878 131.747C184.148 132.372 184.527 132.857 185.014 133.203C185.507 133.549 186.084 133.722 186.747 133.722C187.183 133.722 187.578 133.646 187.933 133.494C188.288 133.343 188.589 133.125 188.835 132.841C189.081 132.557 189.257 132.216 189.361 131.818H191.037C190.942 132.462 190.708 133.042 190.334 133.558C189.964 134.07 189.474 134.477 188.864 134.78C188.258 135.078 187.552 135.227 186.747 135.227ZM197.919 138.722V120.455H199.595V138.722H197.919ZM197.919 135.227C197.18 135.227 196.508 135.095 195.902 134.83C195.296 134.56 194.775 134.179 194.339 133.686C193.904 133.189 193.568 132.595 193.331 131.903C193.094 131.212 192.976 130.445 192.976 129.602C192.976 128.75 193.094 127.978 193.331 127.287C193.568 126.591 193.904 125.994 194.339 125.497C194.775 125 195.296 124.619 195.902 124.354C196.508 124.084 197.18 123.949 197.919 123.949H198.43V135.227H197.919ZM197.919 133.722H198.203V125.455H197.919C197.36 125.455 196.875 125.568 196.463 125.795C196.051 126.018 195.71 126.323 195.44 126.712C195.175 127.095 194.976 127.536 194.844 128.033C194.716 128.53 194.652 129.053 194.652 129.602C194.652 130.331 194.768 131.009 195 131.634C195.232 132.259 195.589 132.763 196.072 133.146C196.555 133.53 197.171 133.722 197.919 133.722ZM199.595 135.227H199.084V123.949H199.595C200.334 123.949 201.006 124.084 201.612 124.354C202.218 124.619 202.739 125 203.175 125.497C203.61 125.994 203.946 126.591 204.183 127.287C204.42 127.978 204.538 128.75 204.538 129.602C204.538 130.445 204.42 131.212 204.183 131.903C203.946 132.595 203.61 133.189 203.175 133.686C202.739 134.179 202.218 134.56 201.612 134.83C201.006 135.095 200.334 135.227 199.595 135.227ZM199.595 133.722C200.159 133.722 200.644 133.613 201.051 133.395C201.463 133.172 201.802 132.869 202.067 132.486C202.337 132.098 202.536 131.657 202.663 131.165C202.796 130.668 202.862 130.147 202.862 129.602C202.862 128.873 202.746 128.194 202.514 127.564C202.282 126.934 201.925 126.425 201.442 126.037C200.959 125.649 200.343 125.455 199.595 125.455H199.311V133.722H199.595ZM211.674 135.227C210.623 135.227 209.717 134.995 208.954 134.531C208.197 134.062 207.612 133.409 207.2 132.571C206.793 131.728 206.589 130.748 206.589 129.631C206.589 128.513 206.793 127.528 207.2 126.676C207.612 125.819 208.185 125.152 208.919 124.673C209.657 124.19 210.519 123.949 211.504 123.949C212.072 123.949 212.633 124.044 213.187 124.233C213.741 124.422 214.245 124.73 214.7 125.156C215.154 125.578 215.517 126.136 215.787 126.832C216.056 127.528 216.191 128.385 216.191 129.403V130.114H207.782V128.665H214.487C214.487 128.049 214.364 127.5 214.118 127.017C213.876 126.534 213.53 126.153 213.081 125.874C212.636 125.594 212.11 125.455 211.504 125.455C210.836 125.455 210.259 125.62 209.771 125.952C209.288 126.278 208.916 126.705 208.656 127.23C208.395 127.756 208.265 128.319 208.265 128.92V129.886C208.265 130.71 208.407 131.409 208.691 131.982C208.98 132.55 209.38 132.983 209.892 133.281C210.403 133.575 210.997 133.722 211.674 133.722C212.115 133.722 212.512 133.66 212.868 133.537C213.227 133.409 213.538 133.22 213.798 132.969C214.058 132.713 214.26 132.396 214.402 132.017L216.021 132.472C215.85 133.021 215.564 133.504 215.162 133.92C214.759 134.332 214.262 134.654 213.67 134.886C213.078 135.114 212.413 135.227 211.674 135.227ZM218.741 139.091V124.091H220.36V125.824H220.559C220.682 125.634 220.853 125.393 221.071 125.099C221.293 124.801 221.61 124.536 222.022 124.304C222.439 124.067 223.002 123.949 223.713 123.949C224.631 123.949 225.441 124.179 226.142 124.638C226.842 125.097 227.389 125.748 227.782 126.591C228.175 127.434 228.372 128.428 228.372 129.574C228.372 130.729 228.175 131.731 227.782 132.578C227.389 133.421 226.845 134.074 226.149 134.538C225.453 134.998 224.65 135.227 223.741 135.227C223.04 135.227 222.479 135.111 222.058 134.879C221.636 134.643 221.312 134.375 221.085 134.077C220.858 133.774 220.682 133.523 220.559 133.324H220.417V139.091H218.741ZM220.389 129.545C220.389 130.369 220.51 131.096 220.751 131.726C220.993 132.351 221.345 132.841 221.809 133.196C222.273 133.546 222.842 133.722 223.514 133.722C224.215 133.722 224.799 133.537 225.268 133.168C225.742 132.794 226.097 132.292 226.333 131.662C226.575 131.027 226.696 130.322 226.696 129.545C226.696 128.778 226.577 128.087 226.341 127.472C226.109 126.851 225.756 126.361 225.282 126.001C224.814 125.637 224.224 125.455 223.514 125.455C222.832 125.455 222.259 125.627 221.795 125.973C221.331 126.314 220.981 126.792 220.744 127.408C220.507 128.018 220.389 128.731 220.389 129.545ZM235.502 135.227C234.451 135.227 233.545 134.995 232.782 134.531C232.025 134.062 231.44 133.409 231.028 132.571C230.621 131.728 230.417 130.748 230.417 129.631C230.417 128.513 230.621 127.528 231.028 126.676C231.44 125.819 232.013 125.152 232.747 124.673C233.485 124.19 234.347 123.949 235.332 123.949C235.9 123.949 236.461 124.044 237.015 124.233C237.569 124.422 238.074 124.73 238.528 125.156C238.983 125.578 239.345 126.136 239.615 126.832C239.885 127.528 240.02 128.385 240.02 129.403V130.114H231.61V128.665H238.315C238.315 128.049 238.192 127.5 237.946 127.017C237.704 126.534 237.359 126.153 236.909 125.874C236.464 125.594 235.938 125.455 235.332 125.455C234.664 125.455 234.087 125.62 233.599 125.952C233.116 126.278 232.744 126.705 232.484 127.23C232.224 127.756 232.093 128.319 232.093 128.92V129.886C232.093 130.71 232.235 131.409 232.52 131.982C232.808 132.55 233.208 132.983 233.72 133.281C234.231 133.575 234.825 133.722 235.502 133.722C235.943 133.722 236.341 133.66 236.696 133.537C237.056 133.409 237.366 133.22 237.626 132.969C237.886 132.713 238.088 132.396 238.23 132.017L239.849 132.472C239.679 133.021 239.392 133.504 238.99 133.92C238.587 134.332 238.09 134.654 237.498 134.886C236.906 135.114 236.241 135.227 235.502 135.227Z" fill="white" fill-opacity="0.8"/>
<g filter="url(#filter0_f_1_541)">
<ellipse cx="679.5" cy="1059" rx="806.5" ry="754" fill="#0EA32A"/>
</g>
<path d="M1129.27 487.451C1121.26 482.595 1113.03 478.313 1104.08 473.301C1051.99 447.68 997.818 426.274 942.075 409.29C931.101 405.894 919.605 402.657 907.826 399.617C790.28 369.759 667.723 361.42 546.101 375.011C442.785 387.082 341.882 416.536 247.758 462.1C385.503 406.984 523.191 399.37 623.069 419.75C725.096 415.894 826.626 429.147 923.365 458.951C993.644 480.378 1061.27 509.137 1125.12 544.755L1173.73 510.868C1160.2 502.907 1145.73 494.793 1130.26 486.76L1129.27 487.451Z" fill="#95C11F"/>
<path d="M1711 304.469C1401.13 53.0528 1019.02 10.9495 605.634 180.901C445.866 248.268 295.574 336.664 158.89 443.658C266.489 360.055 476.095 225.794 737.811 187.97C864.815 145.721 997.935 126.454 1130.72 131.106C1320.99 140.593 1502.3 207.851 1650.13 323.784L1279.5 582.169C1265.66 571.358 1243.2 554.494 1212.94 534.881L1165.46 567.979C1198.58 587.954 1230.11 610.34 1259.82 634.959L1275.2 648.584L1737.82 326.072L1711 304.469Z" fill="#95C11F"/>
<path d="M546.1 375.009C667.718 361.421 790.279 369.757 907.825 399.615C790.557 368.293 667.719 359.936 546.1 375.009Z" fill="#95C11F"/>
<path d="M737.808 187.972C476.091 225.797 266.485 360.058 157.899 444.349L149.281 450.357C144.054 454.001 139.73 458.039 135.822 461.173C100.86 489.637 80.5627 509.311 77.2725 512.423L78.2323 513.799C193.935 409.876 327.576 327.668 472.365 271.354C527.268 250.184 583.852 233.877 641.443 222.626C831.711 185.925 1065.51 202.337 1300.84 372.135C1345.37 342.932 1378.68 321.142 1378.68 321.142C1149.29 186.071 929.439 160.753 737.808 187.972Z" fill="#006633"/>
<path d="M783.69 526.664C767.875 517.232 752.076 509.631 735.092 501.832C724.765 496.963 714.211 492.66 703.846 488.635C665.184 473.509 624.896 462.573 583.673 456.013C521.387 446.11 457.52 447.586 395.21 460.363C297.442 481.318 204.433 521.395 121.68 578.226L129.837 589.927C131.39 588.845 404.374 418.992 622.295 641.226C664.653 608.013 749.55 551.487 783.69 526.664Z" fill="#006633"/>
<path d="M488.346 310.535C435.05 331.054 383.278 355.454 333.46 383.532C264.605 422.344 199.356 467.284 138.545 517.78C125.967 527.973 114.048 538.948 102.863 550.633C109.081 546.298 116.994 540.781 125.473 534.87C226.207 485.101 282.788 414.152 546.101 375.011C689.761 356.686 789.528 375.098 899.805 398.048C970.631 415.374 1039.02 440.72 1103.65 473.595C1112.7 478.134 1121.02 481.945 1129.83 487.056C1166.01 461.837 1216.13 428.32 1261.74 397.961C1027.5 233.338 767.564 203.844 488.346 310.535Z" fill="#006633"/>
<path d="M1347.92 408.031C1332.15 395.441 1316.45 383.474 1300.84 372.128C1288.83 380.501 1276.12 389.367 1262.17 397.665C1274.37 406.133 1286.29 414.798 1298.21 424.071L1173.72 510.857C1187.92 519.168 1201.06 527.18 1212.93 534.865L1369.63 425.619L1347.92 408.031Z" fill="#36A9E1"/>
<path d="M333.46 383.532C383.278 355.454 435.05 331.054 488.345 310.535C767.564 203.844 1027.5 233.337 1262.73 397.272C1276.01 388.012 1289.21 379.833 1301.41 371.735C1065.52 202.333 831.713 185.921 641.445 222.623C636.391 224.715 631.101 226.766 625.907 228.954C523.979 271.405 426.067 323.158 333.46 383.532Z" fill="#01432C"/>
<path d="M1125.41 544.559L990.182 638.831C925.254 564.968 845.57 505.279 755.943 463.362C679.744 427.96 596.492 409.018 511.585 407.769C426.683 406.517 342.026 422.985 263.11 456.104C243.523 465.054 223.798 474.714 203.796 485.18C168.704 504.886 134.894 526.817 102.582 550.832L121.776 578.364C204.49 521.495 297.468 481.371 395.213 460.361C457.677 447.787 521.627 446.214 584.099 455.717C625.36 462.122 665.663 473.064 704.271 488.339C732.354 498.388 759.447 510.848 785.246 525.58L783.693 526.663C854.234 566.432 916.771 618.497 968.368 680.428L979.979 697.083L1165.37 567.842C1153.08 560.455 1139.79 552.533 1125.41 544.559Z" fill="#009FE3"/>
<path d="M625.9 228.934C631.093 226.745 636.379 224.696 641.433 222.604C583.846 233.859 527.264 250.17 472.363 271.343C327.332 327.96 193.503 410.509 77.6744 514.798L102.813 550.857C117.099 537.011 123.109 530.571 138.538 517.77C199.354 467.273 264.6 422.335 333.454 383.522C426.061 323.147 523.971 271.392 625.9 228.934Z" fill="#01432C"/>
<rect x="40" y="160" width="209" height="52" rx="8" fill="#0EA32A"/>
<path d="M94.0371 192H92.5071V182.445H87.0771V192H85.5471V181.125H94.0371V192ZM96.4793 183.93H97.8443V185.205C98.3393 184.35 99.1793 183.795 100.484 183.795C102.344 183.795 103.934 185.355 103.934 187.995C103.934 190.68 102.344 192.195 100.484 192.195C99.1793 192.195 98.3393 191.64 97.8443 190.785V194.625H96.4793V183.93ZM97.7843 187.995C97.7843 190.125 98.9243 191.025 100.139 191.025C101.534 191.025 102.449 189.93 102.449 187.995C102.449 186.06 101.534 184.965 100.139 184.965C98.9243 184.965 97.7843 185.865 97.7843 187.995ZM111.005 192V185.91L106.835 192H105.47V183.93H106.835V190.02L111.005 183.93H112.37V192H111.005ZM121.254 192H119.889V188.475H115.899V192H114.534V183.93H115.899V187.29H119.889V183.93H121.254V192ZM129.377 183.93V192H128.012V189.135H126.587C126.512 189.135 126.437 189.135 126.362 189.12L124.172 192H122.477L124.922 188.745C123.902 188.4 123.212 187.62 123.212 186.42C123.212 184.755 124.352 183.93 126.212 183.93H129.377ZM128.012 185.115H126.287C125.282 185.115 124.607 185.535 124.607 186.51C124.607 187.605 125.462 187.95 126.407 187.95H128.012V185.115ZM137.489 185.115H134.729V192H133.364V185.115H130.604V183.93H137.489V185.115ZM140.087 186.78H142.007C144.122 186.78 145.022 187.605 145.022 189.33C145.022 191.325 143.852 192 141.992 192H138.722V183.93H140.087V186.78ZM140.087 190.815H141.872C143.072 190.815 143.687 190.41 143.687 189.33C143.687 188.265 143.057 187.965 141.842 187.965H140.087V190.815ZM149.339 194.625V193.485H149.894C150.794 193.485 151.229 193.425 151.589 192.165L151.649 192L148.739 183.93H150.254L152.309 190.155L154.304 183.93H155.729L152.849 192.345C152.249 194.085 151.859 194.625 150.044 194.625H149.339ZM162.743 192H161.378V188.73C160.433 188.955 159.713 189.06 158.978 189.06C157.283 189.06 156.398 188.31 156.398 186.555V183.93H157.763V186.27C157.763 187.47 158.333 187.875 159.473 187.875C159.998 187.875 160.628 187.785 161.378 187.605V183.93H162.743V192ZM169.91 188.625V188.115C167.435 188.355 165.86 188.73 165.86 189.84C165.86 190.605 166.445 191.115 167.42 191.115C168.695 191.115 169.91 190.53 169.91 188.625ZM167.12 192.195C165.605 192.195 164.345 191.355 164.345 189.87C164.345 187.965 166.505 187.395 169.805 187.035V186.84C169.805 185.355 168.995 184.875 167.975 184.875C166.835 184.875 166.19 185.475 166.13 186.48H164.72C164.84 184.74 166.4 183.765 167.96 183.765C170.195 183.765 171.185 184.815 171.17 187.095L171.155 188.955C171.14 190.32 171.2 191.235 171.365 192H169.985C169.94 191.7 169.895 191.37 169.88 190.89C169.385 191.73 168.56 192.195 167.12 192.195ZM176.399 183.795C178.379 183.795 179.579 185.25 179.774 186.63H178.394C178.199 185.67 177.374 184.995 176.309 184.995C175.109 184.995 173.984 185.94 173.984 187.965C173.984 190.005 175.109 190.995 176.309 190.995C177.464 190.995 178.259 190.215 178.454 189.375H179.864C179.579 190.89 178.154 192.195 176.264 192.195C173.939 192.195 172.499 190.44 172.499 187.98C172.499 185.58 174.014 183.795 176.399 183.795ZM187.02 185.115H184.26V192H182.895V185.115H180.135V183.93H187.02V185.115ZM193.789 192V185.91L189.619 192H188.254V183.93H189.619V190.02L193.789 183.93H195.154V192H193.789ZM204.367 188.415H198.157C198.202 190.155 199.462 190.995 200.647 190.995C201.847 190.995 202.507 190.455 202.852 189.66H204.262C203.902 191.04 202.612 192.195 200.647 192.195C198.097 192.195 196.687 190.365 196.687 187.98C196.687 185.415 198.397 183.795 200.602 183.795C203.077 183.795 204.532 185.85 204.367 188.415ZM200.602 184.965C199.402 184.965 198.292 185.625 198.172 187.245H202.927C202.882 186.105 202.057 184.965 200.602 184.965Z" fill="white"/>
</g>
<defs>
<filter id="filter0_f_1_541" x="-527" y="-95" width="2413" height="2308" filterUnits="userSpaceOnUse" color-interpolation-filters="sRGB">
<feFlood flood-opacity="0" result="BackgroundImageFix"/>
<feBlend mode="normal" in="SourceGraphic" in2="BackgroundImageFix" result="shape"/>
<feGaussianBlur stdDeviation="200" result="effect1_foregroundBlur_1_541"/>
</filter>
<clipPath id="clip0_1_541">
<rect width="1264" height="400" rx="12" fill="white"/>
</clipPath>
</defs>
</svg>
