<svg width="44" height="44" viewBox="0 0 44 44" fill="none" xmlns="http://www.w3.org/2000/svg">
<rect width="44" height="44" rx="8" fill="#2C2D2E"/>
<path fill-rule="evenodd" clip-rule="evenodd" d="M14.4927 28.0631C14.1557 27.9634 13.8482 27.786 13.5961 27.5459C13.3441 27.3058 13.1549 27.0101 13.0445 26.6836C12.4139 24.9963 12.227 17.9505 13.4416 16.5596C13.8459 16.1072 14.4166 15.8286 15.03 15.7844C18.2884 15.4423 28.3558 15.4879 29.512 15.8984C29.8372 16.0014 30.1343 16.1749 30.3811 16.4059C30.6278 16.6369 30.8178 16.9194 30.9368 17.2323C31.6259 18.9766 31.6492 25.3155 30.8434 26.9914C30.6296 27.4277 30.2717 27.781 29.8273 27.9947C28.6127 28.5875 16.1044 28.5761 14.4927 28.0631ZM19.6665 24.7568L25.5061 21.7926L19.6665 18.8056V24.7568Z" fill="white"/>
</svg>
