<svg width="44" height="44" viewBox="0 0 44 44" fill="none" xmlns="http://www.w3.org/2000/svg">
<rect width="44" height="44" rx="8" fill="#2C2D2E"/>
<path fill-rule="evenodd" clip-rule="evenodd" d="M23.7492 23.7492C22.4649 25.0744 22.3773 26.7265 22.2605 30.346C25.6348 30.346 27.9641 30.3343 29.1667 29.1667C30.3343 27.9641 30.346 25.5239 30.346 22.2605C26.7265 22.3773 25.0744 22.4649 23.7492 23.7492ZM22.0854 30.346C18.7111 30.346 16.3818 30.3343 15.1792 29.1667C14.0117 27.9641 14 25.5239 14 22.2605C17.6195 22.3773 19.2716 22.4649 20.5968 23.7492C21.8811 25.0744 21.9687 26.7265 22.0854 30.346ZM20.5968 20.5968C19.2716 21.8811 17.6195 21.9687 14 22.0854C14 18.8221 14.0117 16.3818 15.1792 15.1792C16.3818 14.0117 18.717 14 22.0854 14C21.9687 17.6195 21.8811 19.2716 20.5968 20.5968ZM22.2605 14C22.3715 17.6195 22.4649 19.2716 23.7492 20.5968C25.0744 21.8811 26.7265 21.9687 30.346 22.0854C30.346 18.8221 30.3343 16.3818 29.1667 15.1792C27.9641 14.0117 25.6348 14 22.2605 14Z" fill="white"/>
</svg>
