<svg width="169" height="42" viewBox="0 0 169 42" fill="none" xmlns="http://www.w3.org/2000/svg">
<path d="M23.0862 1C52.7727 1 115.215 1 145.378 1C175.541 1 175.541 41 145.378 41C115.215 41 52.7727 41 23.0862 41C-6.60034 41 -6.60033 1 23.0862 1Z" stroke="white" stroke-width="0.988372"/>
<path d="M26.2202 11.7358C28.3102 11.7358 29.9523 13.2784 29.9523 16.0899V29.3758H27.937V23.0563H19.7763L16.2682 29.3758H13.9543L22.1648 14.5473C23.1849 12.7062 24.5533 11.7358 26.2202 11.7358ZM20.8461 21.1156H27.937V16.1645C27.937 14.5224 27.1657 13.7263 26.1705 13.7263C25.2748 13.7263 24.6528 14.2736 24.0059 15.443L20.8461 21.1156ZM37.3287 13.6765C35.3134 13.6765 33.7211 15.2439 33.7211 17.4085C33.7211 19.5233 35.3134 21.0908 37.3287 21.0908C39.344 21.0908 40.9363 19.5233 40.9363 17.4085C40.9363 15.2439 39.344 13.6765 37.3287 13.6765ZM31.7058 29.3758V17.6573C31.7058 14.199 34.0694 11.7358 37.3536 11.7358C40.5631 11.7358 43.0014 14.1492 43.0014 17.3588C43.0014 20.1702 40.9861 22.3596 38.3488 22.8324L46.609 29.3758H43.5487L33.7211 21.6879V29.3758H31.7058ZM43.1593 11.9598H55.251V13.9004H50.2253V29.3758H48.2099V13.9004H43.1593V11.9598ZM63.5633 27.4352V29.3758H57.1194C53.9596 29.3758 52.5166 27.5596 52.5166 25.5941C52.5166 24.151 53.1137 23.1309 54.0591 21.5137L59.6323 11.9598H61.9461L55.8256 22.5089C55.0543 23.8276 54.5567 24.5242 54.5567 25.4199C54.5567 26.44 55.2783 27.4352 57.3682 27.4352H63.5633Z" fill="white"/>
<path d="M71.951 29.6246C66.552 29.6246 62.2229 26.0668 62.2229 20.7176C62.2229 15.7167 66.154 11.7358 71.13 11.7358C75.9567 11.7358 79.4648 15.3683 79.4648 20.1453V21.1156H64.288C64.5119 25.5692 68.2688 27.6342 71.951 27.6342C74.7127 27.6342 77.4495 26.3156 78.9672 24.3252V26.639C77.4495 28.5797 74.9615 29.6246 71.951 29.6246ZM64.4372 19.1999H77.35C76.9519 15.9903 74.5634 13.7263 71.13 13.7263C67.796 13.7263 65.109 16.065 64.4372 19.1999Z" fill="white"/>
<path d="M85.8204 29.3758H80.6702V11.9597H84.8251C88.0098 11.9597 89.9753 13.9501 89.9753 16.3884C89.9753 17.7319 89.3533 18.9013 88.3084 19.6477C90.3485 20.3443 91.7169 22.0362 91.7169 24.2505C91.7169 27.2113 89.2787 29.3758 85.8204 29.3758ZM82.6855 27.4352H85.7457C88.1093 27.4352 89.627 26.1165 89.627 24.2505C89.627 22.3845 88.1093 21.1156 85.9945 21.1156H82.6855V27.4352ZM82.6855 19.175H84.8749C86.6912 19.175 87.9103 18.0802 87.9103 16.5128C87.9103 14.9205 86.6912 13.9004 84.6261 13.9004H82.6855V19.175Z" fill="white"/>
<path d="M101.792 29.6246C96.5921 29.6246 92.5117 26.0668 92.5117 20.7176C92.5117 15.7167 96.3184 11.7358 101.294 11.7358C105.201 11.7358 107.639 13.8009 108.758 15.5425V21.1156H94.5768C94.7758 25.5692 98.3088 27.6342 101.792 27.6342C105.3 27.6342 107.639 25.4448 108.062 23.4295H110.152C109.306 27.261 105.748 29.6246 101.792 29.6246ZM94.7261 19.1999H106.743V16.3138C105.972 15.2688 104.404 13.7263 101.294 13.7263C97.9605 13.7263 95.3729 16.065 94.7261 19.1999Z" fill="white"/>
<path d="M115.141 29.3758H110.912V11.9597H115.141C120.341 11.9597 124.173 15.6171 124.173 20.6678C124.173 25.7184 120.341 29.3758 115.141 29.3758ZM112.927 27.4352H115.141C119.247 27.4352 122.083 24.5988 122.083 20.6678C122.083 16.7367 119.247 13.9004 115.141 13.9004H112.927V27.4352Z" fill="white"/>
<path d="M125.484 11.9597H134.59V13.8755H127.499V19.1998H134.59V21.1156H127.499C127.565 22.4425 127.947 23.587 128.643 24.5491C129.34 25.4945 130.203 26.216 131.231 26.7136C132.276 27.1946 133.354 27.4352 134.465 27.4352H138.023V29.3758H134.465C132.84 29.3758 131.339 29.0109 129.962 28.2811C128.585 27.5347 127.491 26.5063 126.678 25.1959C125.882 23.869 125.484 22.3762 125.484 20.7175V11.9597Z" fill="white"/>
<path d="M142.148 29.5997C140.207 29.5997 138.69 28.2313 138.69 25.594V11.9597H140.705V25.594C140.705 27.0122 141.377 27.6093 142.198 27.6093C142.919 27.6093 143.566 27.1117 144.288 25.7184L151.354 11.9597H153.668L146.004 26.8629C144.984 28.8533 143.616 29.5997 142.148 29.5997Z" fill="white"/>
</svg>
