<svg width="121" height="32" viewBox="0 0 121 32" fill="none" xmlns="http://www.w3.org/2000/svg">
<g clip-path="url(#clip0_1_318)">
<path d="M25.6577 21.6809H22.9663V9.19434H30.27V11.7629H25.6577V14.5639H29.441V16.9112H25.6577V21.6809Z" fill="black"/>
<path d="M31.9463 9.19434H37.7381V11.5492H36.1861V19.326H37.8257V21.6809H32.0412V19.326H33.502V11.5492H31.9463V9.19434Z" fill="black"/>
<path d="M50.0923 9.19434V21.6809H47.4666L42.6498 13.6565V21.6809H40.2725V9.19434H42.9602L47.7076 17.1137V9.19434H50.0923Z" fill="black"/>
<path d="M59.0576 18.9886H55.7126L55.0406 21.6809H52.2104L55.7272 9.19434H59.1197L62.5451 21.6809H59.7296L59.0576 18.9886ZM56.1033 16.9525H58.6998L57.4581 12.0366L56.1033 16.9525Z" fill="black"/>
<path d="M74.4209 9.19434V21.6809H71.7915L66.9784 13.6565V21.6809H64.6011V9.19434H67.2888L72.0362 17.1137V9.19434H74.4209Z" fill="black"/>
<path d="M84.2368 21.2534C83.2954 21.5943 82.3119 21.7975 81.3154 21.8571C78.5181 21.8571 76.5168 20.3234 76.5168 16.7237V14.1552C76.5168 10.5704 78.5327 9.01807 81.3154 9.01807C82.3124 9.07665 83.2962 9.2812 84.2368 9.62552L83.7511 11.9428C82.9643 11.6587 82.1438 11.4847 81.3117 11.4254C79.8911 11.4254 79.2192 12.6215 79.2192 14.1889V16.6862C79.2192 18.1486 79.7816 19.4497 81.3117 19.4497C82.1746 19.3897 83.0264 19.2158 83.8461 18.9323L84.2368 21.2534Z" fill="black"/>
<path d="M89.0976 19.3448H93.6953V21.6809H86.3916V9.19434H93.6953V11.5342H89.0976V14.1177H92.8809V16.435H89.0976V19.3448Z" fill="black"/>
<path d="M98.8004 18.7561V21.6809H95.9885V18.7561H98.8004Z" fill="black"/>
<path d="M105.414 17.3987H103.99V21.6809H101.298V9.19434H105.491C108.697 9.19434 109.979 10.2668 109.979 13.319C109.979 15.5313 109.135 16.9412 107.93 17.3312L110.556 21.6846H107.554L105.414 17.3987ZM103.99 15.1001H105.586C106.681 15.1001 107.258 14.6727 107.258 13.3153C107.258 11.9579 106.725 11.4779 105.586 11.4779H103.99V15.1001Z" fill="black"/>
<path d="M121 9.19434V17.2225C121 20.451 119.342 21.8571 116.684 21.8571C113.667 21.8571 112.086 20.451 112.086 17.2225V9.19434H114.869V17.3987C114.869 18.8986 115.497 19.506 116.779 19.506C118.06 19.506 118.513 18.8986 118.513 17.3987V9.19434H121Z" fill="black"/>
<path d="M12.9239 12.8765C12.7377 12.959 12.5587 13.0527 12.3579 13.1502C11.2522 13.7614 10.1959 14.4623 9.19905 15.2463C9.00185 15.4 8.801 15.565 8.60015 15.7375C6.60427 17.4649 4.93018 19.5497 3.65921 21.8908C2.58893 23.8861 1.85898 26.0547 1.50098 28.3028C2.23134 25.1568 3.80894 22.6032 5.41575 21.0733C6.61663 19.2033 8.11676 17.5552 9.85273 16.1987C11.1098 15.2104 12.4648 14.3608 13.8953 13.6639V12.374C13.5849 12.5165 13.2599 12.674 12.9239 12.8502V12.8765Z" fill="#95C11F"/>
<path d="M16.897 0.209983C8.55251 2.61355 3.04554 8.91305 0.934778 18.4111C0.149071 22.1029 -0.143328 25.8873 0.0656403 29.6602C-0.0877369 26.6979 0.12407 21.2833 2.70592 16.1387C3.53229 13.3447 4.84504 10.7276 6.58052 8.41434C9.11785 5.13454 12.575 2.73399 16.4843 1.53738V11.3729C16.1191 11.4854 15.5385 11.6766 14.8118 11.9728V13.2327C15.5805 12.89 16.3726 12.6055 17.1818 12.3815L17.6164 12.2765V0L16.897 0.209983Z" fill="#95C11F"/>
<path d="M3.65918 21.8908C4.93015 19.5498 6.60424 17.4649 8.60012 15.7375C6.58156 17.4417 4.90366 19.5313 3.65918 21.8908Z" fill="#95C11F"/>
<path d="M12.9239 12.8766V12.8503C12.7377 12.9441 12.5588 13.0453 12.3579 13.1503C12.5405 13.0528 12.7377 12.9591 12.9239 12.8766Z" fill="#95C11F"/>
<path d="M2.70596 16.1388C0.124111 21.2834 -0.0876957 26.698 0.0656815 29.6865V29.9152C0.0656815 30.0539 0.0839407 30.1814 0.0912444 30.2902C0.164281 31.2689 0.262881 31.8763 0.277488 31.9738H0.314006C-0.101262 28.6138 0.0943806 25.2038 0.890997 21.9171C1.19635 20.6731 1.60944 19.4596 2.12532 18.2911C3.83803 14.4364 7.04069 10.4655 13.0005 8.37689C13.0334 7.21823 13.0589 6.35205 13.0589 6.35205C7.79297 8.76686 4.60492 12.3778 2.70596 16.1388Z" fill="#006633"/>
<path d="M9.32317 19.5359C8.95798 19.7009 8.62567 19.8884 8.27509 20.0946C8.05963 20.2183 7.85148 20.3533 7.65063 20.4883C6.89946 20.9904 6.20285 21.5737 5.57273 22.2282C4.6208 23.2172 3.85232 24.376 3.30494 25.6479C2.4623 27.6547 2.02023 29.8146 2.00488 31.9999H2.31529C2.31529 31.9587 2.68047 24.9692 9.35969 23.8443C9.29395 22.6744 9.34143 20.4546 9.32317 19.5359Z" fill="#006633"/>
<path d="M1.78947 22.1195C1.49249 23.3267 1.28375 24.555 1.165 25.7942C1.00095 27.507 0.991168 29.2317 1.13579 30.9463C1.16123 31.2978 1.20881 31.6473 1.27821 31.9925C1.27821 31.8275 1.27821 31.6175 1.27821 31.3925C1.64339 28.974 1.08101 27.0803 3.65921 21.8908C5.11994 19.0972 6.69023 17.5448 8.47233 15.8612C9.66304 14.8121 10.9667 13.9063 12.3579 13.1614C12.5514 13.0564 12.7231 12.9552 12.9239 12.8615C12.9239 11.9015 12.9495 10.5891 12.975 9.39673C7.12115 11.5303 3.35976 15.805 1.78947 22.1195Z" fill="#006633"/>
<path d="M14.2277 7.98319C13.8065 8.10818 13.3975 8.23942 13.0007 8.37691C13.0007 8.69563 13.0007 9.03311 12.9751 9.38558C13.2782 9.27309 13.5813 9.1681 13.8954 9.0706V12.3741C14.2204 12.2241 14.5271 12.0891 14.812 11.9729V7.81445L14.2277 7.98319Z" fill="#36A9E1"/>
<path d="M1.16504 25.7942C1.28379 24.555 1.49253 23.3267 1.7895 22.1195C3.35979 15.805 7.12119 11.5303 12.9751 9.37049C12.9751 9.01801 12.9933 8.68054 13.0006 8.36182C7.04085 10.4654 3.83818 14.4363 2.12547 18.291C2.09991 18.4073 2.0707 18.5273 2.04513 18.6473C1.53444 20.996 1.23978 23.3888 1.16504 25.7942Z" fill="#01432C"/>
<path d="M7.65063 20.4771C7.85149 20.3421 8.05964 20.2071 8.2751 20.0833C8.64028 19.8771 8.97625 19.7084 9.32318 19.5246V19.4946C8.73913 19.772 8.17953 20.1007 7.65063 20.4771Z" fill="#36A9E1"/>
<path d="M13.8953 12.3741V13.6565C14.2166 13.499 14.5234 13.3603 14.8119 13.2328V11.9729C14.527 12.0891 14.2203 12.2241 13.8953 12.3741Z" fill="#1F801C"/>
<path d="M13.8951 13.6564V17.2449C11.7686 17.4848 9.71136 18.1647 7.8477 19.2434C6.26741 20.1634 4.89319 21.4143 3.81423 22.915C2.73527 24.4156 1.97569 26.1324 1.5848 27.954C1.50081 28.4152 1.42777 28.8877 1.36569 29.3752C1.28074 30.2472 1.25146 31.124 1.27804 32H2.00841C2.0226 29.8149 2.46343 27.655 3.30481 25.6479C3.85773 24.3759 4.62549 23.2143 5.57261 22.217C6.20044 21.5599 6.89734 20.9764 7.6505 20.4771C8.1794 20.1007 8.739 19.772 9.32304 19.4947V19.5359C10.9109 18.7713 12.6186 18.3027 14.3662 18.1523H14.8081V13.2327C14.5233 13.3602 14.2165 13.4989 13.8951 13.6564Z" fill="#009FE3"/>
<path d="M2.04498 18.6472C2.07054 18.5272 2.09976 18.4073 2.12532 18.291C1.60944 19.4595 1.19635 20.673 0.890998 21.917C0.0965795 25.2118 -0.0953493 28.6294 0.324963 31.9962H1.28175C1.21236 31.5687 1.17219 31.3812 1.13567 30.9463C0.991053 29.2316 1.00083 27.507 1.16489 25.7942C1.23963 23.3888 1.53429 20.996 2.04498 18.6472Z" fill="#01432C"/>
</g>
<defs>
<clipPath id="clip0_1_318">
<rect width="121" height="32" fill="white"/>
</clipPath>
</defs>
</svg>
